<?xml version="1.0" standalone="no"?>
<!DOCTYPE svg PUBLIC "-//W3C//DTD SVG 20010904//EN"
 "http://www.w3.org/TR/2001/REC-SVG-20010904/DTD/svg10.dtd">
<svg version="1.0" xmlns="http://www.w3.org/2000/svg"
 width="512.000000pt" height="512.000000pt" viewBox="0 0 512.000000 512.000000"
 preserveAspectRatio="xMidYMid meet">
<metadata>
Created by potrace 1.11, written by Peter Selinger 2001-2013
</metadata>
<g transform="translate(0.000000,512.000000) scale(0.100000,-0.100000)"
fill="#000000" stroke="none">
<path d="M2260 5105 c-921 -112 -1707 -705 -2064 -1558 -262 -625 -262 -1349
0 -1974 260 -620 757 -1117 1377 -1377 625 -262 1349 -262 1974 0 620 260
1117 757 1377 1377 262 625 262 1349 0 1974 -260 620 -757 1117 -1377 1377
-219 92 -452 153 -696 181 -151 18 -444 18 -591 0z m381 -959 c24 -7 305 -164
624 -348 628 -363 666 -389 698 -482 15 -44 17 -108 17 -544 0 -549 2 -532
-65 -532 -23 0 -48 14 -101 59 -268 227 -658 397 -1172 511 -317 71 -538 143
-723 235 -84 42 -224 131 -285 181 -121 99 -138 291 -36 403 26 29 152 107
437 272 220 128 418 238 440 245 53 17 112 17 166 0z m-1335 -1325 c268 -227
658 -397 1172 -511 421 -94 676 -190 898 -338 156 -105 203 -166 212 -278 6
-83 -18 -153 -72 -208 -28 -29 -167 -115 -441 -273 -220 -127 -415 -235 -434
-242 -44 -14 -118 -14 -162 0 -19 7 -299 165 -624 352 -448 259 -601 352 -636
387 -80 81 -79 74 -79 638 0 549 -2 532 65 532 23 0 48 -14 101 -59z"/>
</g>
</svg>
