<?xml version="1.0" encoding="UTF-8"?>
<svg width="16px" height="16px" viewBox="0 0 16 16" version="1.1" xmlns="http://www.w3.org/2000/svg" xmlns:xlink="http://www.w3.org/1999/xlink">
    <defs>
        <path d="M15,21 L13.5,21 C12.6718576,21 12,20.3281424 12,19.5 L12,13.5 C12,12.6718576 12.6718576,12 13.5,12 L22.5,12 C23.3281424,12 24,12.6718576 24,13.5 L24,19.5 C24,20.3281424 23.3281424,21 22.5,21 L18.7071068,21 L15.8535534,23.8535534 C15.538571,24.1685358 15,23.9454524 15,23.5 L15,21 Z M18.1464466,20.1464466 C18.2402148,20.0526784 18.3673918,20 18.5,20 L22.5,20 C22.7758576,20 23,19.7758576 23,19.5 L23,13.5 C23,13.2241424 22.7758576,13 22.5,13 L13.5,13 C13.2241424,13 13,13.2241424 13,13.5 L13,19.5 C13,19.7758576 13.2241424,20 13.5,20 L15.5,20 C15.7761424,20 16,20.2238576 16,20.5 L16,22.2928932 L18.1464466,20.1464466 Z M18.5,25 C18.2238576,25 18,24.7761424 18,24.5 C18,24.2238576 18.2238576,24 18.5,24 L21.5,24 C21.6326082,24 21.7597852,24.0526784 21.8535534,24.1464466 L24,26.2928932 L24,24.5 C24,24.2238576 24.2238576,24 24.5,24 L26.5,24 C26.7758576,24 27,23.7758576 27,23.5 L27,17.5 C27,17.2241424 26.7758576,17 26.5,17 L25.5,17 C25.2238576,17 25,16.7761424 25,16.5 C25,16.2238576 25.2238576,16 25.5,16 L26.5,16 C27.3281424,16 28,16.6718576 28,17.5 L28,23.5 C28,24.3281424 27.3281424,25 26.5,25 L25,25 L25,27.5 C25,27.9454524 24.461429,28.1685358 24.1464466,27.8535534 L21.2928932,25 L18.5,25 Z" id="path-1"></path>
    </defs>
    <g id="Website_desktop_1240" stroke="none" stroke-width="1" fill="none" fill-rule="evenodd">
        <g id="XSN_desktop_1240-@2x" transform="translate(-12, -12.000000)">
            <g id="header">
                <g id="icons/1-stroke/16px/wallet-copy-2">
                    <mask id="mask-2" fill="white">
                        <use xlink:href="#path-1"></use>
                    </mask>
                    <use id="icons/forum" fill="#8192DB" xlink:href="#path-1"></use>
                </g>
            </g>
        </g>
    </g>
</svg>