<?xml version="1.0" encoding="UTF-8"?>
<svg width="16px" height="16px" viewBox="0 0 16 16" version="1.1" xmlns="http://www.w3.org/2000/svg" xmlns:xlink="http://www.w3.org/1999/xlink">
    <defs>
        <path d="M12.841161,18.8655276 C12.6392856,19.0539446 12.3228912,19.0430345 12.1344742,18.8411591 C11.9460572,18.6392838 11.9569674,18.3228893 12.1588427,18.1344724 L19.6588427,11.1344724 C19.8509461,10.9551759 20.1490576,10.9551759 20.341161,11.1344724 L27.841161,18.1344724 C28.0430363,18.3228893 28.0539465,18.6392838 27.8655295,18.8411591 C27.6771125,19.0430345 27.3607181,19.0539446 27.1588427,18.8655276 L20.0000019,12.1839428 L12.841161,18.8655276 Z M19.0000019,23 L19.0000019,26.5 C19.0000019,26.7761424 18.7761442,27 18.5000019,27 L14.5000019,27 C14.2238595,27 14.0000019,26.7761424 14.0000019,26.5 L14.0000019,19.5 C14.0000019,19.2238576 14.2238595,19 14.5000019,19 C14.7761442,19 15.0000019,19.2238576 15.0000019,19.5 L15.0000019,26 L18.0000019,26 L18.0000019,22.5 C18.0000019,22.2238576 18.2238595,22 18.5000019,22 L21.5000019,22 C21.7761442,22 22.0000019,22.2238576 22.0000019,22.5 L22.0000019,26 L25.0000019,26 L25.0000019,19.5 C25.0000019,19.2238576 25.2238595,19 25.5000019,19 C25.7761442,19 26.0000019,19.2238576 26.0000019,19.5 L26.0000019,26.5 C26.0000019,26.7761424 25.7761442,27 25.5000019,27 L21.5000019,27 C21.2238595,27 21.0000019,26.7761424 21.0000019,26.5 L21.0000019,23 L19.0000019,23 Z" id="path-1"></path>
    </defs>
    <g id="Symbols" stroke="none" stroke-width="1" fill="none" fill-rule="evenodd">
        <g id="icons/1-stroke/16px/homepage" transform="translate(-12.000000, -11.000000)">
            <mask id="mask-2" fill="white">
                <use xlink:href="#path-1"></use>
            </mask>
            <use id="icons/homepage" fill="#8192DB" fill-rule="nonzero" xlink:href="#path-1"></use>
        </g>
    </g>
</svg>