<?xml version="1.0" encoding="UTF-8"?>
<svg width="16px" height="11px" viewBox="0 0 16 11" version="1.1" xmlns="http://www.w3.org/2000/svg" xmlns:xlink="http://www.w3.org/1999/xlink">
    <defs>
        <path d="M12.5,16 C12.2238576,16 12,15.7761424 12,15.5 C12,15.2238576 12.2238576,15 12.5,15 L27.5,15 C27.7761424,15 28,15.2238576 28,15.5 C28,15.7761424 27.7761424,16 27.5,16 L12.5,16 Z M12.5,21 C12.2238576,21 12,20.7761424 12,20.5 C12,20.2238576 12.2238576,20 12.5,20 L27.5,20 C27.7761424,20 28,20.2238576 28,20.5 C28,20.7761424 27.7761424,21 27.5,21 L12.5,21 Z M12.5,26 C12.2238576,26 12,25.7761424 12,25.5 C12,25.2238576 12.2238576,25 12.5,25 L20.5,25 C20.7761424,25 21,25.2238576 21,25.5 C21,25.7761424 20.7761424,26 20.5,26 L12.5,26 Z" id="path-1"></path>
    </defs>
    <g id="Symbols" stroke="none" stroke-width="1" fill="none" fill-rule="evenodd">
        <g id="icons/1-stroke/16px/list-menu" transform="translate(-12.000000, -15.000000)">
            <mask id="mask-2" fill="white">
                <use xlink:href="#path-1"></use>
            </mask>
            <use id="icons/list-menu" fill="#6672A6" fill-rule="nonzero" xlink:href="#path-1"></use>
        </g>
    </g>
</svg>