<?xml version="1.0" encoding="UTF-8"?>
<svg width="16px" height="16px" viewBox="0 0 16 16" version="1.1" xmlns="http://www.w3.org/2000/svg" xmlns:xlink="http://www.w3.org/1999/xlink">
    <defs>
        <path d="M26.5,27 C26.7758576,27 27,26.7758576 27,26.5 L27,13.5 C27,13.2241424 26.7758576,13 26.5,13 L13.5,13 C13.2241424,13 13,13.2241424 13,13.5 L13,26.5 C13,26.7758576 13.2241424,27 13.5,27 L26.5,27 Z M26.5,28 L13.5,28 C12.6718576,28 12,27.3281424 12,26.5 L12,13.5 C12,12.6718576 12.6718576,12 13.5,12 L26.5,12 C27.3281424,12 28,12.6718576 28,13.5 L28,26.5 C28,27.3281424 27.3281424,28 26.5,28 Z M22,24 L22,21.5 C22,21.2238576 22.2238576,21 22.5,21 L27.5,21 C27.7761424,21 28,21.2238576 28,21.5 C28,21.7761424 27.7761424,22 27.5,22 L23,22 L23,24.5 C23,24.7761424 22.7761424,25 22.5,25 L17.5,25 C17.2238576,25 17,24.7761424 17,24.5 L17,22 L12.5,22 C12.2238576,22 12,21.7761424 12,21.5 C12,21.2238576 12.2238576,21 12.5,21 L17.5,21 C17.7761424,21 18,21.2238576 18,21.5 L18,24 L22,24 Z M16.5,16 C16.2238576,16 16,15.7761424 16,15.5 C16,15.2238576 16.2238576,15 16.5,15 L23.5,15 C23.7761424,15 24,15.2238576 24,15.5 C24,15.7761424 23.7761424,16 23.5,16 L16.5,16 Z M16.5,19 C16.2238576,19 16,18.7761424 16,18.5 C16,18.2238576 16.2238576,18 16.5,18 L23.5,18 C23.7761424,18 24,18.2238576 24,18.5 C24,18.7761424 23.7761424,19 23.5,19 L16.5,19 Z" id="path-1"></path>
    </defs>
    <g id="Website_desktop_1240" stroke="none" stroke-width="1" fill="none" fill-rule="evenodd">
        <g id="Homepage_desktop_1240-@2x" transform="translate(-802.000000, -92.000000)">
            <g id="header" transform="translate(0.000000, 60.000000)">
                <g id="Group-5" transform="translate(700.000000, 20.000000)">
                    <g id="icons/1-stroke/16px/resources" transform="translate(90.000000, 0.000000)">
                        <mask id="mask-2" fill="white">
                            <use xlink:href="#path-1"></use>
                        </mask>
                        <use class="icon_backgound" id="icons/resources" fill="#8192DB" fill-rule="nonzero" xlink:href="#path-1"></use>
                    </g>
                </g>
            </g>
        </g>
    </g>
</svg>