<?xml version="1.0" encoding="UTF-8"?>
<svg width="16px" height="14px" viewBox="0 0 16 14" version="1.1" xmlns="http://www.w3.org/2000/svg" xmlns:xlink="http://www.w3.org/1999/xlink">
    <defs>
        <path d="M13.5,14 C13.2238576,14 13,14.2238576 13,14.5 L13,25.5 C13,25.7761424 13.2238576,26 13.5,26 L26.5,26 C26.7761424,26 27,25.7761424 27,25.5 L27,14.5 C27,14.2238576 26.7761424,14 26.5,14 L13.5,14 Z M13.5,13 L26.5,13 C27.3284271,13 28,13.6715729 28,14.5 L28,25.5 C28,26.3284271 27.3284271,27 26.5,27 L13.5,27 C12.6715729,27 12,26.3284271 12,25.5 L12,14.5 C12,13.6715729 12.6715729,13 13.5,13 Z M21,26.5 L20,26.5 L20,13.5 L21,13.5 L21,26.5 Z M20,26.5 L20,13.5 C20,12.8333333 21,12.8333333 21,13.5 L21,26.5 C21,27.1666667 20,27.1666667 20,26.5 Z M25,19.5 L23,19.5 C22.7238576,19.5 22.5,19.7238576 22.5,20 C22.5,20.2761424 22.7238576,20.5 23,20.5 L25,20.5 C25.2761424,20.5 25.5,20.2761424 25.5,20 C25.5,19.7238576 25.2761424,19.5 25,19.5 Z M25,16.5 L23,16.5 C22.7238576,16.5 22.5,16.7238576 22.5,17 C22.5,17.2761424 22.7238576,17.5 23,17.5 L25,17.5 C25.2761424,17.5 25.5,17.2761424 25.5,17 C25.5,16.7238576 25.2761424,16.5 25,16.5 Z M25,22.5 L23,22.5 C22.7238576,22.5 22.5,22.7238576 22.5,23 C22.5,23.2761424 22.7238576,23.5 23,23.5 L25,23.5 C25.2761424,23.5 25.5,23.2761424 25.5,23 C25.5,22.7238576 25.2761424,22.5 25,22.5 Z" id="path-1"></path>
    </defs>
    <g id="Website_desktop_1240" stroke="none" stroke-width="1" fill="none" fill-rule="evenodd">
        <g id="XSN_desktop_1240-@2x" transform="translate(-1189.000000, -33.000000)">
            <g id="header">
                <g id="icons/1-stroke/16px/wallet-copy" transform="translate(1177.000000, 20.000000)">
                    <mask id="mask-2" fill="white">
                        <use xlink:href="#path-1"></use>
                    </mask>
                    <use id="icons/services" fill="#8192DB" fill-rule="nonzero" transform="translate(20.000000, 20.000000) rotate(-180.000000) translate(-20.000000, -20.000000) " xlink:href="#path-1"></use>
                </g>
            </g>
        </g>
    </g>
</svg>