<?xml version="1.0" encoding="UTF-8"?>
<svg width="16px" height="16px" viewBox="0 0 16 16" version="1.1" xmlns="http://www.w3.org/2000/svg" xmlns:xlink="http://www.w3.org/1999/xlink">
    <defs>
        <path d="M14,25 L15.5,25 C15.7761424,25 16,25.2238576 16,25.5 C16,25.7761424 15.7761424,26 15.5,26 L13.5,26 C13.2238576,26 13,25.7761424 13,25.5 L13,23 L12.5,23 C12.2238576,23 12,22.7761424 12,22.5 L12,19.5 C12,18.6715729 12.6715729,18 13.5,18 L14.5,18 C14.7761424,18 15,18.2238576 15,18.5 C15,18.7761424 14.7761424,19 14.5,19 L13.5,19 C13.2238576,19 13,19.2238576 13,19.5 L13,22 L13.5,22 C13.7761424,22 14,22.2238576 14,22.5 L14,25 Z M15,14 C14.4477153,14 14,14.4477153 14,15 C14,15.5522847 14.4477153,16 15,16 C15.5522847,16 16,15.5522847 16,15 C16,14.4477153 15.5522847,14 15,14 Z M15,13 C16.1045695,13 17,13.8954305 17,15 C17,16.1045695 16.1045695,17 15,17 C13.8954305,17 13,16.1045695 13,15 C13,13.8954305 13.8954305,13 15,13 Z M27,23 L27,25.5 C27,25.7761424 26.7761424,26 26.5,26 L24.5,26 C24.2238576,26 24,25.7761424 24,25.5 C24,25.2238576 24.2238576,25 24.5,25 L26,25 L26,22.5 C26,22.2238576 26.2238576,22 26.5,22 L27,22 L27,19.5 C27,19.2238576 26.7761424,19 26.5,19 L25.5,19 C25.2238576,19 25,18.7761424 25,18.5 C25,18.2238576 25.2238576,18 25.5,18 L26.5,18 C27.3284271,18 28,18.6715729 28,19.5 L28,22.5 C28,22.7761424 27.7761424,23 27.5,23 L27,23 Z M20,11 C21.3807119,11 22.5,12.1192881 22.5,13.5 C22.5,14.8807119 21.3807119,16 20,16 C18.6192881,16 17.5,14.8807119 17.5,13.5 C17.5,12.1192881 18.6192881,11 20,11 Z M23,23 L23,26.5 C23,26.7761424 22.7761424,27 22.5,27 L17.5,27 C17.2238576,27 17,26.7761424 17,26.5 L17,23 L16.5,23 C16.2238576,23 16,22.7761424 16,22.5 L16,19.5 C16,18.1192881 17.1192881,17 18.5,17 L21.5,17 C22.8807119,17 24,18.1192881 24,19.5 L24,22.5 C24,22.7761424 23.7761424,23 23.5,23 L23,23 Z M22,26 L22,22.5 C22,22.2238576 22.2238576,22 22.5,22 L23,22 L23,19.5 C23,18.6715729 22.3284271,18 21.5,18 L18.5,18 C17.6715729,18 17,18.6715729 17,19.5 L17,22 L17.5,22 C17.7761424,22 18,22.2238576 18,22.5 L18,26 L22,26 Z M20,12 C19.1715729,12 18.5,12.6715729 18.5,13.5 C18.5,14.3284271 19.1715729,15 20,15 C20.8284271,15 21.5,14.3284271 21.5,13.5 C21.5,12.6715729 20.8284271,12 20,12 Z M25,17 C23.8954305,17 23,16.1045695 23,15 C23,13.8954305 23.8954305,13 25,13 C26.1045695,13 27,13.8954305 27,15 C27,16.1045695 26.1045695,17 25,17 Z M25,16 C25.5522847,16 26,15.5522847 26,15 C26,14.4477153 25.5522847,14 25,14 C24.4477153,14 24,14.4477153 24,15 C24,15.5522847 24.4477153,16 25,16 Z" id="path-1"></path>
    </defs>
    <g id="Website_desktop_1240" stroke="none" stroke-width="1" fill="none" fill-rule="evenodd">
        <g id="Homepage_desktop_1240-@2x" transform="translate(-1022.000000, -91.000000)">
            <g id="header" transform="translate(0.000000, 60.000000)">
                <g id="Group-5" transform="translate(700.000000, 20.000000)">
                    <g id="icons/1-stroke/16px/team" transform="translate(310.000000, 0.000000)">
                        <mask id="mask-2" fill="white">
                            <use xlink:href="#path-1"></use>
                        </mask>
                        <use class="icon_backgound" id="icons/team" fill="#8192DB" fill-rule="nonzero" xlink:href="#path-1"></use>
                    </g>
                </g>
            </g>
        </g>
    </g>
</svg>