<?xml version="1.0" encoding="UTF-8"?>
<svg width="16px" height="16px" viewBox="0 0 16 16" version="1.1" xmlns="http://www.w3.org/2000/svg" xmlns:xlink="http://www.w3.org/1999/xlink">
    <defs>
        <path d="M23,12 L14.5,12 C13.6715729,12 13,12.6715729 13,13.5 C13,14.3284271 13.6715729,15 14.5,15 L27.5,15 C27.7761424,15 28,15.2238576 28,15.5 L28,26.5 C28,26.7761424 27.7761424,27 27.5,27 L14.5,27 C13.1192881,27 12,25.8807119 12,24.5 L12,13.5 C12,12.1192881 13.1192881,11 14.5,11 L23.5,11 C23.7761424,11 24,11.2238576 24,11.5 L24,13.5 C24,13.7761424 23.7761424,14 23.5,14 C23.2238576,14 23,13.7761424 23,13.5 L23,12 Z M13,24.5 C13,25.3284271 13.6715729,26 14.5,26 L27,26 L27,16 L14.5,16 C13.937197,16 13.4178303,15.8140276 13,15.5001831 L13,24.5 Z M23,23 C21.8954305,23 21,22.1045695 21,21 C21,19.8954305 21.8954305,19 23,19 C24.1045695,19 25,19.8954305 25,21 C25,22.1045695 24.1045695,23 23,23 Z M23,22 C23.5522847,22 24,21.5522847 24,21 C24,20.4477153 23.5522847,20 23,20 C22.4477153,20 22,20.4477153 22,21 C22,21.5522847 22.4477153,22 23,22 Z" id="path-1"></path>
    </defs>
    <g id="Desktop" stroke="none" stroke-width="1" fill="none" fill-rule="evenodd">
        <g id="Withdraw-@2x" transform="translate(-30.000000, -146.000000)">
            <g id="Sidebar" transform="translate(0.000000, 80.000000)">
                <g id="2" transform="translate(0.000000, 50.000000)">
                    <g id="icons/dasboard" transform="translate(18.000000, 5.000000)">
                        <mask id="mask-2" fill="white">
                            <use xlink:href="#path-1"></use>
                        </mask>
                        <use class="icon_backgound" id="icons/wallet" fill="#8192DB" fill-rule="nonzero" xlink:href="#path-1"></use>
                    </g>
                </g>
            </g>
        </g>
    </g>
</svg>