<?xml version="1.0" encoding="UTF-8"?>
<svg width="14px" height="16px" viewBox="0 0 14 16" version="1.1" xmlns="http://www.w3.org/2000/svg" xmlns:xlink="http://www.w3.org/1999/xlink">
    <defs>
        <path d="M18.5,20 C18.2238576,20 18,19.7761424 18,19.5 C18,19.2238576 18.2238576,19 18.5,19 L21.5,19 C21.7761424,19 22,19.2238576 22,19.5 C22,19.7761424 21.7761424,20 21.5,20 L18.5,20 Z M18.5,17 C18.2238576,17 18,16.7761424 18,16.5 C18,16.2238576 18.2238576,16 18.5,16 L21.5,16 C21.7761424,16 22,16.2238576 22,16.5 C22,16.7761424 21.7761424,17 21.5,17 L18.5,17 Z M16,14 L16,22 L24,22 L24,14 L16,14 Z M15.5,13 L24.5,13 C24.7761424,13 25,13.2238576 25,13.5 L25,22.5 C25,22.7761424 24.7761424,23 24.5,23 L15.5,23 C15.2238576,23 15,22.7761424 15,22.5 L15,13.5 C15,13.2238576 15.2238576,13 15.5,13 Z M14.5,12 C14.2238576,12 14,12.2238576 14,12.5 L14,25.5 C14,25.7761424 14.2238576,26 14.5,26 L25.5,26 C25.7761424,26 26,25.7761424 26,25.5 L26,12.5 C26,12.2238576 25.7761424,12 25.5,12 L14.5,12 Z M14.5,11 L25.5,11 C26.3284271,11 27,11.6715729 27,12.5 L27,25.5 C27,26.3284271 26.3284271,27 25.5,27 L14.5,27 C13.6715729,27 13,26.3284271 13,25.5 L13,12.5 C13,11.6715729 13.6715729,11 14.5,11 Z" id="path-1"></path>
    </defs>
    <g id="Website_desktop_1240" stroke="none" stroke-width="1" fill="none" fill-rule="evenodd">
        <g id="Homepage_desktop_1240-@2x" transform="translate(-935.000000, -91.000000)">
            <g id="header" transform="translate(0.000000, 60.000000)">
                <g id="Group-5" transform="translate(700.000000, 20.000000)">
                    <g id="icons/1-stroke/16px/wiki_book" transform="translate(222.000000, 0.000000)">
                        <mask id="mask-2" fill="white">
                            <use xlink:href="#path-1"></use>
                        </mask>
                        <use class="icon_backgound" id="icons/wiki_book" fill="#8192DB" fill-rule="nonzero" xlink:href="#path-1"></use>
                    </g>
                </g>
            </g>
        </g>
    </g>
</svg>