<?xml version="1.0" encoding="UTF-8"?>
<svg width="16px" height="16px" viewBox="0 0 16 16" version="1.1" xmlns="http://www.w3.org/2000/svg" xmlns:xlink="http://www.w3.org/1999/xlink">
    <defs>
        <path d="M27,19 C27,18.7238576 27.2238576,18.5 27.5,18.5 C27.7761424,18.5 28,18.7238576 28,19 C28,23.418278 24.418278,27 20,27 C15.581722,27 12,23.418278 12,19 C12,14.581722 15.581722,11 20,11 C20.2761424,11 20.5,11.2238576 20.5,11.5 C20.5,11.7761424 20.2761424,12 20,12 C16.1340068,12 13,15.1340068 13,19 C13,22.8659932 16.1340068,26 20,26 C23.8659932,26 27,22.8659932 27,19 Z M22.5194779,12.4662744 C22.2619617,12.3665748 22.134026,12.0769941 22.2337256,11.8194779 C22.3334252,11.5619617 22.6230059,11.434026 22.8805221,11.5337256 C24.9862547,12.348978 26.651022,14.0137453 27.4662744,16.1194779 C27.565974,16.3769941 27.4380383,16.6665748 27.1805221,16.7662744 C26.9230059,16.865974 26.6334252,16.7380383 26.5337256,16.4805221 C25.820075,14.6372187 24.3627813,13.179925 22.5194779,12.4662744 Z M16,19 C16,19.2761424 15.7761424,19.5 15.5,19.5 C15.2238576,19.5 15,19.2761424 15,19 C15,16.2385763 17.2385763,14 20,14 C22.7614237,14 25,16.2385763 25,19 C25,21.7614237 22.7614237,24 20,24 C19.7238576,24 19.5,23.7761424 19.5,23.5 C19.5,23.2238576 19.7238576,23 20,23 C22.209139,23 24,21.209139 24,19 C24,16.790861 22.209139,15 20,15 C17.790861,15 16,16.790861 16,19 Z M20,21 C18.8954305,21 18,20.1045695 18,19 C18,17.8954305 18.8954305,17 20,17 C21.1045695,17 22,17.8954305 22,19 C22,20.1045695 21.1045695,21 20,21 Z M20,20 C20.5522847,20 21,19.5522847 21,19 C21,18.4477153 20.5522847,18 20,18 C19.4477153,18 19,18.4477153 19,19 C19,19.5522847 19.4477153,20 20,20 Z" id="path-1"></path>
    </defs>
    <g id="Website_desktop_1240" stroke="none" stroke-width="1" fill="none" fill-rule="evenodd">
        <g id="Homepage_desktop_1240-@2x" transform="translate(-712.000000, -91.000000)">
            <g id="header" transform="translate(0.000000, 60.000000)">
                <g id="Group-5" transform="translate(700.000000, 20.000000)">
                    <g id="icons/1-stroke/16px/coin_xsn">
                        <mask id="mask-2" fill="white">
                            <use xlink:href="#path-1"></use>
                        </mask>
                        <use class="icon_backgound" id="icons/coin-xsn" fill="#8192DB" fill-rule="nonzero" xlink:href="#path-1"></use>
                    </g>
                </g>
            </g>
        </g>
    </g>
</svg>