<svg width="105" height="152" xmlns="http://www.w3.org/2000/svg"><path d="M98 149H5.5c-2.485 0-4.5-2.026-4.5-4.525V63h1v81.475c0 1.944 1.567 3.52 3.5 3.52H98v-2.499a.5.5 0 0 1 .758-.428l4.994 3.003a.5.5 0 0 1 0 .857l-4.994 3.004a.5.5 0 0 1-.758-.428V149zm.5-89H5v-1.009h93.5v-2.995a.5.5 0 0 1 .758-.428l4.994 3.003a.5.5 0 0 1 0 .857l-4.994 3.004a.5.5 0 0 1-.758-.428V60zM1.5 3a1.5 1.5 0 1 1 0-3 1.5 1.5 0 0 1 0 3zM1 56V3h1.005v53H1zm.5 5a1.5 1.5 0 1 1 0-3 1.5 1.5 0 0 1 0 3z" fill="#4169FF" fill-rule="evenodd"/></svg>