<svg width="135" height="186" xmlns="http://www.w3.org/2000/svg"><path d="M6.5 181h122.982a3.507 3.507 0 0 0 3.514-3.5V95H134v82.5c0 2.485-2.023 4.5-4.518 4.5H6.5v3.004a.5.5 0 0 1-.758.428L.748 182.43a.5.5 0 0 1 0-.857l4.994-3.004a.5.5 0 0 1 .758.428V181zM95.915 1h33.567C131.977 1 134 3.015 134 5.5V88h-1c0-18.351-.004-45.797-.004-82.5 0-1.933-1.573-3.5-3.514-3.5H95.915a1.5 1.5 0 1 1 0-1zM6 91h124v1H6v2.504a.5.5 0 0 1-.758.428L.248 91.93a.5.5 0 0 1 0-.857l4.994-3.004a.5.5 0 0 1 .758.428V91zm127.5 2a1.5 1.5 0 1 1 0-3 1.5 1.5 0 0 1 0 3z" fill="#4169FF" fill-rule="evenodd"/></svg>