<?xml version="1.0" encoding="UTF-8"?>
<svg width="5px" height="11px" viewBox="0 0 5 11" version="1.1" xmlns="http://www.w3.org/2000/svg" xmlns:xlink="http://www.w3.org/1999/xlink">
    <!-- Generator: sketchtool 50.2 (55047) - http://www.bohemiancoding.com/sketch -->
    <title>F7C4A923-FBA6-46D3-A33C-B64DD4F8695D</title>
    <desc>Created with sketchtool.</desc>
    <defs></defs>
    <g id="Website_desktop_1240" stroke="none" stroke-width="1" fill="none" fill-rule="evenodd">
        <g id="Wiki_faq_beginner_desktop_1240-@2x" transform="translate(-1608.000000, -3186.000000)" fill="#4169FF">
            <g id="Group-2" transform="translate(1600.000000, 3178.000000)">
                <path d="M12.0088872,12.9999978 L12.0088872,11.4979778 C12.0088872,11.2218354 12.2327449,10.9979778 12.5088872,10.9979778 C12.6078805,10.9979778 12.7046459,11.0273631 12.7869227,11.0824104 L15.7792188,13.0844065 C16.0087303,13.2379612 16.0703055,13.5484978 15.9167508,13.7780094 C15.8803513,13.832414 15.8336234,13.8791419 15.7792188,13.9155414 L12.7869227,15.9175375 C12.5574111,16.0710922 12.2468745,16.009517 12.0933198,15.7800055 C12.0382725,15.6977288 12.0088872,15.6009633 12.0088872,15.50197 L12.0088872,13.9999978 L5.5014706,13.9999978 C5.22532822,13.9999978 5.0014706,13.7761401 5.0014706,13.4999978 C5.0014706,13.2238554 5.22532822,12.9999978 5.5014706,12.9999978 L12.0088872,12.9999978 Z" id="icons/arrow_up" transform="translate(10.501471, 13.500000) rotate(-90.000000) translate(-10.501471, -13.500000) "></path>
            </g>
        </g>
    </g>
</svg>