<?xml version="1.0" encoding="UTF-8"?>
<svg width="19px" height="10px" viewBox="0 0 19 10" version="1.1" xmlns="http://www.w3.org/2000/svg" xmlns:xlink="http://www.w3.org/1999/xlink">
    <!-- Generator: sketchtool 49.3 (51167) - http://www.bohemiancoding.com/sketch -->
    <title>F392BE79-C714-47EA-B7D1-63C65C139D0A</title>
    <desc>Created with sketchtool.</desc>
    <defs></defs>
    <g id="Page-1" stroke="none" stroke-width="1" fill="none" fill-rule="evenodd">
        <g id="Home-page_mobile-@2x" transform="translate(-347.000000, -364.000000)" fill="#4169FF">
            <g id="subscribe-form" transform="translate(15.000000, 344.000000)">
                <path d="M343,26 L333,26 C332.447715,26 332,25.5522847 332,25 C332,24.4477153 332.447715,24 333,24 L343,24 L343,21.8042476 C343,21.2519629 343.447715,20.8042476 344,20.8042476 C344.18742,20.8042476 344.371067,20.8569171 344.529999,20.9562493 L349.643203,24.1520017 C350.111539,24.444712 350.253912,25.0616624 349.961202,25.5299989 C349.880721,25.6587681 349.771972,25.7675176 349.643203,25.8479983 L344.529999,29.0437507 C344.061662,29.336461 343.444712,29.1940878 343.152002,28.7257513 C343.052669,28.5668197 343,28.3831721 343,28.1957524 L343,26 Z" id="arrow"></path>
            </g>
        </g>
    </g>
</svg>