<svg width="23" height="23" xmlns="http://www.w3.org/2000/svg"><defs><linearGradient x1="83.118%" y1="24.41%" x2="17.506%" y2="83.838%" id="a"><stop stop-color="#6CA6F9" offset="0%"/><stop stop-color="#4169FF" offset="30.871%"/><stop stop-color="#4169FF" offset="100%"/></linearGradient></defs><path d="M300 1313a8.016 8.016 0 0 0 5.33 7.545 1 1 0 1 1-.667 1.885A10.02 10.02 0 0 1 298 1313c0-5.514 4.486-10 10-10 4.233 0 8.023 2.681 9.432 6.67a1 1 0 0 1-.61 1.276h-.001a1 1 0 0 1-1.275-.61A8.014 8.014 0 0 0 308 1305c-4.411 0-8 3.589-8 8zm4 0c0 1.271.584 2.438 1.603 3.203a1 1 0 0 1 .2 1.4v.001a1 1 0 0 1-1.4.2A6.033 6.033 0 0 1 302 1313c0-3.309 2.69-6 6-6 1.905 0 3.655.875 4.8 2.399a1 1 0 0 1-.199 1.4v.001h-.001a1 1 0 0 1-1.4-.198v-.001A3.966 3.966 0 0 0 308 1309c-2.206 0-4 1.794-4 4zm16.707 7.293a.999.999 0 0 1 0 1.414l-4 4a.997.997 0 0 1-1.414 0l-3.293-3.293-2.293 2.294a.998.998 0 0 1-1.703-.617l-1-11a1 1 0 0 1 1.086-1.087l11 1a1 1 0 0 1 .617 1.703l-2.293 2.293 3.293 3.293z" transform="matrix(-1 0 0 1 321 -1303)" fill="url(#a)" fill-rule="nonzero"/></svg>