<svg width="22" height="22" xmlns="http://www.w3.org/2000/svg"><defs><linearGradient x1="27.082%" y1="10.57%" x2="64.304%" y2="100%" id="a"><stop stop-color="#6CA6F9" offset="0%"/><stop stop-color="#4169FF" offset="30.871%"/><stop stop-color="#4169FF" offset="100%"/></linearGradient></defs><path d="M40.7 19.3c-.2-.2-.5-.3-.9-.3-.4.1-11.1 1.9-15.5 6.3-3.1 3.1-3.3 6.5-2.8 8.9l3.7-2.2c.5-.3 1 .4.6.8l-3.7 3.7-2.8 2.8c-.4.4-.4 1 0 1.4.2.2.4.3.7.3.3 0 .5-.1.7-.3l2.8-2.8c.8.4 2.3.9 4.2.9 2.2 0 4.2-.7 6-2.1.3-.2.5-.7.3-1.1l-1.4-5 3.6 1.4c.5.2 1.1 0 1.3-.5 2.1-4.7 3.4-11 3.5-11.2 0-.4-.1-.8-.3-1z" transform="translate(-19 -19)" fill="url(#a)" fill-rule="nonzero"/></svg>