<svg width="14" height="18" xmlns="http://www.w3.org/2000/svg"><path d="M10.483 7.208c-.44 1.762-3.154.867-4.035.647l.777-3.113c.881.219 3.716.629 3.258 2.466m-.482 5.025c-.483 1.936-3.744.89-4.801.627l.857-3.433c1.057.264 4.447.786 3.944 2.806m3.564-4.997c.282-1.891-1.157-2.908-3.128-3.586l.64-2.562-1.56-.389-.622 2.494c-.411-.102-.831-.198-1.25-.294l.627-2.51L6.712 0l-.638 2.561c-.34-.077-.673-.154-.996-.234l.002-.008-2.152-.537-.415 1.666s1.157.265 1.133.281c.632.158.746.576.727.907l-.728 2.919c.043.011.1.027.162.052l-.165-.041-1.02 4.089c-.077.192-.273.479-.715.371.016.022-1.133-.283-1.133-.283L0 13.528l2.03.506c.377.094.747.193 1.111.287l-.645 2.591 1.557.388.64-2.563c.426.115.839.221 1.244.322l-.638 2.552 1.56.389.645-2.586c2.66.502 4.66.299 5.502-2.106.678-1.936-.034-3.054-1.434-3.782 1.02-.235 1.788-.905 1.993-2.29" fill="#8192DB" fill-rule="evenodd"/></svg>