<svg width="15" height="16" xmlns="http://www.w3.org/2000/svg"><path d="M14.551 11.569c-.03-3.05-2.82-3.735-2.82-3.735s1.353 1.203 1.418 3.764c.065 2.561-1.417 3.824-1.417 3.824s2.851-.802 2.82-3.853M11.94 3.821c.044 2.278-.877 3.168-.877 3.168s2.259-.728 2.216-3.317C13.235 1.08 10.185.418 10.185.418s1.713 1.125 1.755 3.403m-1.301 8.771c-.578 2.234-2.333 2.298-3.254 2.263-.92-.036-1.806-.022-1.905-2.612-.1-2.59-.057-3.974-.057-3.974s2.74-.107 3.675.3c.934.406 2.118 1.79 1.54 4.023M5.659 1.476c.247-.236 1.52-.653 2.73.182 1.208.836 1.523 3.28.524 4.578-.998 1.299-3.488.956-3.488.956s-.012-5.48.234-5.716m6.294 11.046A3.955 3.955 0 0 1 8.12 16c-1.36.012-3.881-.174-3.881-.174V.171C5.9.15 6.482-.074 7.852.118c1.37.193 2.547 1.53 2.869 2.868.32 1.338-.023 2.612-.46 3.307-.44.696-1.403 1.178-1.403 1.178s1.456.492 1.97.92c.514.428 1.509 1.594 1.124 4.131zM0 .257V0l3.126.15v15.69L0 15.99v-.287s1.912-.192 1.912-3.546V3.59C1.912.75 0 .257 0 .257z" fill="#8192DB" fill-rule="evenodd"/></svg>