<svg width="22" height="22" xmlns="http://www.w3.org/2000/svg"><defs><linearGradient x1="18.671%" y1="15.087%" x2="80.111%" y2="100%" id="a"><stop stop-color="#6CA6F9" offset="0%"/><stop stop-color="#4169FF" offset="30.871%"/><stop stop-color="#4169FF" offset="100%"/></linearGradient></defs><path d="M1028.3 5452.5l7 4.8c-1.5 1.1-3.4 1.7-5.3 1.7-5 0-9-4-9-9 0-3.9 2.5-7.2 6-8.5v8.5c0 1 .5 1.9 1.3 2.5zm1.7-15.5c7.2 0 13 5.8 13 13 0 2.7-.8 5.2-2.3 7.4-.2.2-.5.4-.8.4-.2 0-.4-.1-.6-.2l-9.9-6.8c-.2-.2-.4-.5-.4-.8v-12c0-.6.4-1 1-1z" transform="translate(-1021 -5437)" fill="url(#a)" fill-rule="nonzero"/></svg>