<svg width="44" height="43" xmlns="http://www.w3.org/2000/svg" xmlns:xlink="http://www.w3.org/1999/xlink"><defs><path d="M1095.929 4360.076a.5.5 0 0 1 .988-.154 7 7 0 1 1-3.686-5.133.5.5 0 0 1-.462.886 6 6 0 1 0 3.16 4.4zm1.217-5.93a.5.5 0 1 1 .708.708l-8 8a.5.5 0 0 1-.708 0l-3-3a.5.5 0 1 1 .708-.708l2.646 2.647 7.646-7.647z" id="b"/><filter x="-203.3%" y="-217.9%" width="506.7%" height="535.7%" filterUnits="objectBoundingBox" id="a"><feOffset in="SourceAlpha" result="shadowOffsetOuter1"/><feGaussianBlur stdDeviation="7.5" in="shadowOffsetOuter1" result="shadowBlurOuter1"/><feColorMatrix values="0 0 0 0 0.118060612 0 0 0 0 0.782153486 0 0 0 0 0.557480761 0 0 0 1 0" in="shadowBlurOuter1" result="shadowMatrixOuter1"/><feOffset in="SourceAlpha" result="shadowOffsetOuter2"/><feGaussianBlur stdDeviation="4" in="shadowOffsetOuter2" result="shadowBlurOuter2"/><feColorMatrix values="0 0 0 0 0.118060612 0 0 0 0 0.782153486 0 0 0 0 0.557480761 0 0 0 1 0" in="shadowBlurOuter2" result="shadowMatrixOuter2"/><feMerge><feMergeNode in="shadowMatrixOuter1"/><feMergeNode in="shadowMatrixOuter2"/></feMerge></filter></defs><g transform="translate(-1068 -4339)" fill-rule="nonzero" fill="none"><use fill="#000" filter="url(#a)" xlink:href="#b"/><use fill="#1EC78E" fill-rule="evenodd" xlink:href="#b"/></g></svg>