<svg width="23" height="20" xmlns="http://www.w3.org/2000/svg"><path d="M16.5 17a.5.5 0 0 1 0 1h-12a.5.5 0 0 1 0-1h12zM5.957 13.703a.5.5 0 0 1-.914-.406l4-9a.5.5 0 0 1 .914.406l-4 9zM1 16v3h3v-3H1zm-.5-1h4a.5.5 0 0 1 .5.5v4a.5.5 0 0 1-.5.5h-4a.5.5 0 0 1-.5-.5v-4a.5.5 0 0 1 .5-.5zM19 16v3h3v-3h-3zm-.5-1h4a.5.5 0 0 1 .5.5v4a.5.5 0 0 1-.5.5h-4a.5.5 0 0 1-.5-.5v-4a.5.5 0 0 1 .5-.5zM10 1v3h3V1h-3zm-.5-1h4a.5.5 0 0 1 .5.5v4a.5.5 0 0 1-.5.5h-4a.5.5 0 0 1-.5-.5v-4a.5.5 0 0 1 .5-.5zm4.543 6.703a.5.5 0 0 1 .914-.406l4 9a.5.5 0 0 1-.914.406l-4-9z" fill="#2C80FF" fill-rule="nonzero"/></svg>