<svg width="18" height="20" xmlns="http://www.w3.org/2000/svg"><path d="M4.488 7.786v4.34l3.758-2.17-3.758-2.17zm4.317 2.494l3.757 2.169-3.757 2.168V10.28zm-.373 4.338l-3.758-2.17 3.758-2.168v4.338zm0-4.985V5.294L4.674 7.463l3.758 2.17zm.373-4.34v4.34l3.757-2.17-3.757-2.17zm3.945 6.832V7.786l-3.758 2.17 3.758 2.17zM8.66 0L0 5v10l8.66 5 8.66-5V5L8.66 0zM1.194 14.311V5.69L8.66 1.38l7.466 4.31v.147l-2.817 1.626 2.817 1.626v.431l-3.003-1.734v4.34l3.003-1.735v.431l-2.817 1.627 2.817 1.625v.237l-.177.101-2.826-1.632v3.264l-.373.215V12.78l-3.758 2.17 3.012 1.739-.372.215-2.828-1.632v3.265l-.144.084-7.466-4.31z" fill="#8192DB" fill-rule="evenodd"/></svg>