<svg width="42" height="45" xmlns="http://www.w3.org/2000/svg" xmlns:xlink="http://www.w3.org/1999/xlink"><defs><path d="M367 4878c-3.282 0-6-1.235-6-3s2.718-3 6-3 6 1.235 6 3-2.718 3-6 3zm0-1c2.793 0 5-1.003 5-2 0-.997-2.207-2-5-2s-5 1.003-5 2c0 .997 2.207 2 5 2zm-6 .5a.5.5 0 0 1 1 0v.5c0 .997 2.206 2 5 2s5-1.003 5-2v-.5a.5.5 0 0 1 1 0v.5c0 1.765-2.718 3-6 3s-6-1.235-6-3v-.5zm0 3a.5.5 0 0 1 1 0v.5c0 .997 2.206 2 5 2s5-1.003 5-2v-.5a.5.5 0 0 1 1 0v.5c0 1.765-2.718 3-6 3s-6-1.235-6-3v-.5zm0 3a.5.5 0 0 1 1 0v.5c0 .997 2.206 2 5 2s5-1.003 5-2v-.5a.5.5 0 0 1 1 0v.5c0 1.765-2.718 3-6 3s-6-1.235-6-3v-.5z" id="b"/><filter x="-254.2%" y="-203.3%" width="608.3%" height="506.7%" filterUnits="objectBoundingBox" id="a"><feOffset in="SourceAlpha" result="shadowOffsetOuter1"/><feGaussianBlur stdDeviation="7.5" in="shadowOffsetOuter1" result="shadowBlurOuter1"/><feColorMatrix values="0 0 0 0 0.1 0 0 0 0 0.411764706 0 0 0 0 1 0 0 0 1 0" in="shadowBlurOuter1" result="shadowMatrixOuter1"/><feOffset in="SourceAlpha" result="shadowOffsetOuter2"/><feGaussianBlur stdDeviation="4" in="shadowOffsetOuter2" result="shadowBlurOuter2"/><feColorMatrix values="0 0 0 0 0.1 0 0 0 0 0.411764706 0 0 0 0 1 0 0 0 1 0" in="shadowBlurOuter2" result="shadowMatrixOuter2"/><feMerge><feMergeNode in="shadowMatrixOuter1"/><feMergeNode in="shadowMatrixOuter2"/></feMerge></filter></defs><g transform="translate(-346 -4857)" fill-rule="nonzero" fill="none"><use fill="#000" filter="url(#a)" xlink:href="#b"/><use fill="#4169FF" fill-rule="evenodd" xlink:href="#b"/></g></svg>