<svg width="44" height="45" xmlns="http://www.w3.org/2000/svg" xmlns:xlink="http://www.w3.org/1999/xlink"><defs><path d="M367 5150.5a.5.5 0 0 1 1 0v7a.5.5 0 0 1-1 0v-7zm3 0a.5.5 0 0 1 1 0v7a.5.5 0 0 1-1 0v-7zm3 0a.5.5 0 0 1 1 0v7a.5.5 0 0 1-1 0v-7zm-4-1.5a1 1 0 1 1 0-2 1 1 0 0 1 0 2zm-5 1.5a.5.5 0 0 1 1 0v7a.5.5 0 0 1-1 0v-7zm-2.5 9.5a.5.5 0 0 1 0-1h15a.5.5 0 0 1 0 1h-15zm.5-10h14v-2.161l-7-2.8-7 2.8V5150zm-.854.854a.498.498 0 0 1-.146-.354v-3a.5.5 0 0 1 .314-.464l7.5-3a.5.5 0 0 1 .372 0l7.5 3a.5.5 0 0 1 .314.464v3a.5.5 0 0 1-.5.5h-15a.498.498 0 0 1-.354-.146z" id="b"/><filter x="-190.6%" y="-190.6%" width="481.2%" height="481.2%" filterUnits="objectBoundingBox" id="a"><feOffset in="SourceAlpha" result="shadowOffsetOuter1"/><feGaussianBlur stdDeviation="7.5" in="shadowOffsetOuter1" result="shadowBlurOuter1"/><feColorMatrix values="0 0 0 0 0.1 0 0 0 0 0.411764706 0 0 0 0 1 0 0 0 1 0" in="shadowBlurOuter1" result="shadowMatrixOuter1"/><feOffset in="SourceAlpha" result="shadowOffsetOuter2"/><feGaussianBlur stdDeviation="4" in="shadowOffsetOuter2" result="shadowBlurOuter2"/><feColorMatrix values="0 0 0 0 0.1 0 0 0 0 0.411764706 0 0 0 0 1 0 0 0 1 0" in="shadowBlurOuter2" result="shadowMatrixOuter2"/><feMerge><feMergeNode in="shadowMatrixOuter1"/><feMergeNode in="shadowMatrixOuter2"/></feMerge></filter></defs><g transform="translate(-347 -5130)" fill-rule="nonzero" fill="none"><use fill="#000" filter="url(#a)" xlink:href="#b"/><use fill="#4169FF" fill-rule="evenodd" xlink:href="#b"/></g></svg>