<svg width="14" height="16" xmlns="http://www.w3.org/2000/svg" xmlns:xlink="http://www.w3.org/1999/xlink"><defs><path d="M16.5 23a.5.5 0 1 1 0-1h2a.5.5 0 1 1 0 1h-2zm0-3a.5.5 0 1 1 0-1h7a.5.5 0 1 1 0 1h-7zm0-3a.5.5 0 1 1 0-1h7a.5.5 0 1 1 0 1h-7zm5.5 6v4.5a.5.5 0 1 1-1 0v-5a.5.5 0 0 1 .5-.5h5a.5.5 0 1 1 0 1H22zm4-.707V13H14v14h7.293L26 22.293zM21.5 28h-8a.5.5 0 0 1-.5-.5v-15a.5.5 0 0 1 .5-.5h13a.5.5 0 0 1 .5.5v10a.5.5 0 0 1-.146.354l-5 5A.5.5 0 0 1 21.5 28z" id="a"/></defs><g transform="translate(-13 -12)" fill="none" fill-rule="evenodd"><mask id="b" fill="#fff"><use xlink:href="#a"/></mask><use fill="#8192DB" fill-rule="nonzero" xlink:href="#a"/><g mask="url(#b)" fill="#6672A6"><path d="M0 0h40v40H0z"/></g></g></svg>