<svg width="24" height="23" xmlns="http://www.w3.org/2000/svg"><defs><linearGradient x1="9.569%" y1="11.228%" x2="94.542%" y2="100%" id="a"><stop stop-color="#6CA6F9" offset="0%"/><stop stop-color="#4169FF" offset="30.871%"/><stop stop-color="#4169FF" offset="100%"/></linearGradient></defs><path d="M321 4815a1 1 0 1 1 0 2h-22a1 1 0 1 1 0-2h1v-8h2v8h4v-8h2v8h4v-8h2v8h4v-8h2v8h1zm.479-14.878a1 1 0 0 1 .521.878v3a1 1 0 0 1-1 1h-22a1 1 0 0 1-1-1v-3a1 1 0 0 1 .521-.878l11-6c.299-.163.659-.163.958 0l11 6z" transform="translate(-298 -4794)" fill="url(#a)" fill-rule="nonzero"/></svg>