<svg width="16" height="16" xmlns="http://www.w3.org/2000/svg" xmlns:xlink="http://www.w3.org/1999/xlink"><defs><path d="M20 24a1 1 0 1 0 0-2 1 1 0 0 0 0 2zm-1.526-7.842a.5.5 0 1 1-.948-.316c.695-2.087 4.363-2.348 4.96.037.233.934-.01 1.525-.688 2.185-.063.061-.33.312-.399.379-.606.59-.866 1.11-.866 2.057a.5.5 0 0 1-1 0c0-1.243.383-2.008 1.168-2.773.078-.076.346-.328.4-.38.446-.434.549-.685.414-1.226-.333-1.333-2.639-1.169-3.04.037zM20 26a7 7 0 1 0 0-14 7 7 0 0 0 0 14zm0 1a8 8 0 1 1 0-16 8 8 0 0 1 0 16z" id="a"/></defs><g transform="translate(-12 -11)" fill="none" fill-rule="evenodd"><mask id="b" fill="#fff"><use xlink:href="#a"/></mask><use fill="#8192DB" fill-rule="nonzero" xlink:href="#a"/><g mask="url(#b)" fill="#6672A6"><path d="M0 3h40v34H0z"/></g></g></svg>