<svg width="23" height="23" xmlns="http://www.w3.org/2000/svg"><path d="M12 22.5a.5.5 0 0 1-1 0v-10a.5.5 0 0 1 1 0v10zm1.5-.5a5.5 5.5 0 0 0 5.478-5H17.5a5.5 5.5 0 0 0-5.478 5H13.5zm-2.5.5a6.5 6.5 0 0 1 6.5-6.5h2a.5.5 0 0 1 .5.5 6.5 6.5 0 0 1-6.5 6.5h-2a.5.5 0 0 1-.5-.5zM1.5 1a.5.5 0 0 0-.5.5v10a.5.5 0 0 0 .5.5h20a.5.5 0 0 0 .5-.5v-10a.5.5 0 0 0-.5-.5h-20zm0-1h20A1.5 1.5 0 0 1 23 1.5v10a1.5 1.5 0 0 1-1.5 1.5h-20A1.5 1.5 0 0 1 0 11.5v-10A1.5 1.5 0 0 1 1.5 0zm10 9a2.5 2.5 0 1 1 0-5 2.5 2.5 0 0 1 0 5zm0-1a1.5 1.5 0 1 0 0-3 1.5 1.5 0 0 0 0 3z" fill="#2C80FF" fill-rule="nonzero"/></svg>