<?xml version="1.0" encoding="UTF-8"?>
<svg width="12px" height="16px" viewBox="0 0 12 16" version="1.1" xmlns="http://www.w3.org/2000/svg" xmlns:xlink="http://www.w3.org/1999/xlink">
    <!-- Generator: sketchtool 50.2 (55047) - http://www.bohemiancoding.com/sketch -->
    <title>271F5AF3-645A-48A6-97BA-EC4BB4BA509D</title>
    <desc>Created with sketchtool.</desc>
    <defs></defs>
    <g id="Website_desktop_1240" stroke="none" stroke-width="1" fill="none" fill-rule="evenodd">
        <g id="Wiki_faq_beginner_desktop_1240-@2x" transform="translate(-669.000000, -1022.000000)" fill="#7352FF" fill-rule="nonzero">
            <path d="M674.354032,1029.35599 C674.158784,1029.5512 673.842224,1029.5512 673.646976,1029.35599 L671.64712,1027.35656 C671.451872,1027.16135 671.451872,1026.84486 671.64712,1026.64965 C671.842368,1026.45444 672.158928,1026.45444 672.354176,1026.64965 L674.000504,1028.29563 L675.646832,1026.64965 C675.84208,1026.45444 676.158639,1026.45444 676.353887,1026.64965 L678.353743,1028.64909 C678.548991,1028.84429 678.548991,1029.16079 678.353743,1029.35599 C678.158495,1029.5512 677.841935,1029.5512 677.646687,1029.35599 L676.00036,1027.71001 L674.354032,1029.35599 Z M672.500612,1036.00056 C672.22449,1036.00056 672.000648,1035.77677 672.000648,1035.50071 C672.000648,1035.22464 672.22449,1035.00085 672.500612,1035.00085 L677.500251,1035.00085 C677.776374,1035.00085 678.000215,1035.22464 678.000215,1035.50071 C678.000215,1035.77677 677.776374,1036.00056 677.500251,1036.00056 L672.500612,1036.00056 Z M678.000215,1033.19857 L678.000215,1037.50014 C678.000215,1037.77621 677.776374,1038 677.500251,1038 L672.500612,1038 C672.22449,1038 672.000648,1037.77621 672.000648,1037.50014 L672.000648,1033.19364 C669.558366,1031.78566 668.414099,1028.84827 669.295725,1026.14152 C670.209544,1023.33593 673.028496,1021.61145 675.943061,1022.07504 C678.857551,1022.53861 681.002023,1025.05246 680.999999,1028.00296 C681.000317,1030.1537 679.849886,1032.13134 678.000215,1033.19857 Z M677.000287,1032.90144 C677.000287,1032.71359 677.105633,1032.54159 677.272995,1032.4562 C678.946907,1031.60217 680.000419,1029.88179 680.000071,1028.00292 C680.00185,1025.54363 678.21476,1023.44866 675.785956,1023.06234 C673.357152,1022.67602 671.008026,1024.11309 670.246509,1026.45108 C669.484993,1028.78906 670.537269,1031.33355 672.727869,1032.45121 C672.89523,1032.53659 673.000576,1032.70859 673.000576,1032.89644 L673.000576,1037.00028 L677.000287,1037.00028 L677.000287,1032.90144 Z" id="icons/intermediate"></path>
        </g>
    </g>
</svg>