<?xml version="1.0" encoding="UTF-8"?>
<svg width="15px" height="19px" viewBox="0 0 15 19" version="1.1" xmlns="http://www.w3.org/2000/svg" xmlns:xlink="http://www.w3.org/1999/xlink">
    <!-- Generator: sketchtool 53.1 (72631) - https://sketchapp.com -->
    <title>08DA5135-B5FA-40DA-BF34-94EC68E4C96D</title>
    <desc>Created with sketchtool.</desc>
    <g id="Website_desktop_1240" stroke="none" stroke-width="1" fill="none" fill-rule="evenodd">
        <g id="XSN_desktop_1240-@2x" transform="translate(-1223.000000, -6529.000000)" fill="#2C80FF" fill-rule="nonzero">
            <g id="Group-6" transform="translate(360.000000, 6109.000000)">
                <path d="M864.154625,432 C864.065743,432 863.977258,431.98815 863.891508,431.964764 C863.358683,431.819448 863.044546,431.269707 863.189861,430.736883 L865.917134,420.736883 C866.035787,420.301821 866.430947,420 866.881898,420 L872.837135,420 C872.930052,420 873.022515,420.01295 873.111856,420.038476 C873.642891,420.1902 873.950383,420.743686 873.798659,421.274721 L872.162865,427 L876.432479,427 C876.666416,427 876.892949,427.082016 877.072664,427.231779 C877.49694,427.585343 877.554265,428.215908 877.2007,428.640184 L869.283428,438.140912 C869.037738,438.43574 868.644992,438.56395 868.272671,438.47087 C867.736876,438.336921 867.411115,437.793987 867.545064,437.258192 L868.859612,432 L864.154625,432 Z M872.837135,421 L866.881898,421 L864.154625,431 L870.140388,431 L868.515206,437.500727 L876.432479,428 L870.837135,428 L872.837135,421 Z" id="Path"></path>
            </g>
        </g>
    </g>
</svg>