<?xml version="1.0" encoding="UTF-8"?>
<svg width="167px" height="42px" viewBox="0 0 167 42" version="1.1" xmlns="http://www.w3.org/2000/svg" xmlns:xlink="http://www.w3.org/1999/xlink">
    <!-- Generator: Sketch 50.2 (55047) - http://www.bohemiancoding.com/sketch -->
    <title>logo</title>
    <desc>Created with Sketch.</desc>
    <defs></defs>
    <g id="Website_desktop_1240" stroke="none" stroke-width="1" fill="none" fill-rule="evenodd">
        <g id="Homepage_desktop_1240-@2x" transform="translate(-360.000000, -79.000000)">
            <g id="header" transform="translate(0.000000, 60.000000)">
                <g id="logo" transform="translate(360.000000, 19.000000)">
                    <path d="M58.9297,10.8398 C60.1017,10.8398 61.1347,10.9968 62.0277,11.3128 C62.9197,11.6278 63.6627,12.0218 64.2577,12.4938 C64.8527,12.9658 65.3037,13.4868 65.6107,14.0558 C65.9157,14.6248 66.0867,15.1628 66.1217,15.6698 C66.1397,15.8798 66.0737,16.0508 65.9247,16.1818 C65.7767,16.3138 65.6057,16.3788 65.4127,16.3788 L63.5757,16.3788 C63.2787,16.3788 63.0547,16.3218 62.9067,16.2078 C62.7577,16.0948 62.6217,15.9418 62.4997,15.7488 C62.2377,15.3118 61.8387,14.9308 61.3047,14.6068 C60.7717,14.2828 59.9797,14.1208 58.9297,14.1208 C58.4747,14.1208 58.0407,14.1698 57.6297,14.2658 C57.2187,14.3618 56.8607,14.5018 56.5537,14.6858 C56.2467,14.8688 56.0067,15.0928 55.8317,15.3558 C55.6577,15.6168 55.5697,15.9148 55.5697,16.2468 C55.5697,16.6508 55.6527,16.9788 55.8197,17.2318 C55.9857,17.4858 56.2657,17.7038 56.6587,17.8878 C57.0527,18.0718 57.5737,18.2418 58.2207,18.4008 C58.8677,18.5578 59.6727,18.7408 60.6357,18.9508 C61.6857,19.1788 62.5917,19.4458 63.3527,19.7518 C64.1147,20.0588 64.7357,20.4258 65.2167,20.8548 C65.6977,21.2828 66.0567,21.7778 66.2927,22.3378 C66.5297,22.8978 66.6477,23.5358 66.6477,24.2538 C66.6477,25.0408 66.4717,25.7728 66.1217,26.4448 C65.7717,27.1188 65.2737,27.6968 64.6257,28.1778 C63.9787,28.6598 63.1817,29.0398 62.2377,29.3198 C61.2917,29.5998 60.2337,29.7398 59.0607,29.7398 C58.0797,29.7398 57.1447,29.6218 56.2517,29.3858 C55.3597,29.1498 54.5677,28.8088 53.8757,28.3618 C53.1847,27.9158 52.6297,27.3778 52.2097,26.7468 C51.7887,26.1168 51.5537,25.4178 51.5007,24.6478 C51.4837,24.4378 51.5487,24.2668 51.6977,24.1358 C51.8457,24.0048 52.0167,23.9388 52.2097,23.9388 L54.0467,23.9388 C54.3447,23.9388 54.5727,23.9908 54.7297,24.0968 C54.8867,24.2008 55.0187,24.3588 55.1227,24.5688 C55.2447,24.7968 55.3947,25.0248 55.5697,25.2508 C55.7437,25.4788 55.9807,25.6808 56.2787,25.8558 C56.5757,26.0298 56.9477,26.1748 57.3937,26.2878 C57.8397,26.4028 58.3957,26.4588 59.0607,26.4588 C59.5857,26.4588 60.0927,26.4188 60.5827,26.3408 C61.0737,26.2618 61.5017,26.1308 61.8687,25.9468 C62.2377,25.7628 62.5337,25.5358 62.7617,25.2648 C62.9897,24.9928 63.1037,24.6558 63.1037,24.2538 C63.1037,23.8688 62.9807,23.5538 62.7357,23.3088 C62.4907,23.0638 62.1187,22.8538 61.6197,22.6788 C61.1207,22.5038 60.5047,22.3378 59.7697,22.1798 C59.0337,22.0228 58.1857,21.8208 57.2237,21.5758 C56.3477,21.3658 55.5827,21.1168 54.9267,20.8278 C54.2707,20.5388 53.7277,20.1848 53.2987,19.7648 C52.8697,19.3448 52.5507,18.8508 52.3407,18.2818 C52.1307,17.7138 52.0257,17.0348 52.0257,16.2468 C52.0257,15.4598 52.2007,14.7348 52.5507,14.0688 C52.9007,13.4038 53.3817,12.8348 53.9937,12.3618 C54.6067,11.8898 55.3367,11.5188 56.1867,11.2468 C57.0347,10.9758 57.9497,10.8398 58.9297,10.8398 Z M73.9971,24.543 C73.9971,25.085 74.1421,25.519 74.4301,25.842 C74.7191,26.166 75.2571,26.327 76.0441,26.327 L77.6451,26.327 C77.8381,26.327 78.0041,26.397 78.1441,26.537 C78.2841,26.678 78.3541,26.844 78.3541,27.036 L78.3541,28.769 C78.3541,28.962 78.2841,29.128 78.1441,29.268 C78.0041,29.408 77.8381,29.478 77.6451,29.478 L75.7031,29.478 C74.0581,29.478 72.7931,29.08 71.9101,28.283 C71.0261,27.487 70.5841,26.267 70.5841,24.621 L70.5841,18.978 L68.8511,18.978 C68.6591,18.978 68.4931,18.908 68.3531,18.768 C68.2131,18.628 68.1431,18.462 68.1431,18.269 L68.1431,16.536 C68.1431,16.344 68.2131,16.178 68.3531,16.037 C68.4931,15.897 68.6591,15.827 68.8511,15.827 L70.5841,15.827 L70.5841,11.549 C70.5841,11.356 70.6541,11.19 70.7941,11.05 C70.9341,10.91 71.1011,10.84 71.2931,10.84 L73.2881,10.84 C73.4801,10.84 73.6461,10.91 73.7871,11.05 C73.9271,11.19 73.9971,11.356 73.9971,11.549 L73.9971,15.827 L77.3831,15.827 C77.5751,15.827 77.7411,15.897 77.8821,16.037 C78.0211,16.178 78.0921,16.344 78.0921,16.536 L78.0921,18.269 C78.0921,18.462 78.0211,18.628 77.8821,18.768 C77.7411,18.908 77.5751,18.978 77.3831,18.978 L73.9971,18.978 L73.9971,24.543 Z M85.3105,26.5898 C85.9055,26.5898 86.4345,26.5068 86.8985,26.3408 C87.3625,26.1748 87.7515,25.9508 88.0665,25.6708 C88.3815,25.3918 88.6185,25.0758 88.7755,24.7268 C88.9325,24.3758 89.0115,24.0178 89.0115,23.6508 L89.0115,23.3878 L85.4415,24.0178 C84.7235,24.1408 84.2075,24.3188 83.8925,24.5558 C83.5785,24.7918 83.4195,25.1108 83.4195,25.5138 C83.4195,25.8808 83.6085,26.1528 83.9845,26.3268 C84.3605,26.5028 84.8025,26.5898 85.3105,26.5898 M80.9265,19.1878 C80.9965,18.8198 81.1585,18.4268 81.4125,18.0058 C81.6655,17.5858 82.0245,17.1928 82.4885,16.8248 C82.9525,16.4578 83.5205,16.1548 84.1945,15.9188 C84.8685,15.6838 85.6515,15.5658 86.5435,15.5658 C87.4365,15.5658 88.2415,15.6838 88.9585,15.9188 C89.6765,16.1548 90.2925,16.5008 90.8095,16.9558 C91.3255,17.4108 91.7235,17.9848 92.0035,18.6758 C92.2845,19.3668 92.4235,20.1588 92.4235,21.0518 L92.4235,28.7688 C92.4235,28.9618 92.3535,29.1278 92.2135,29.2678 C92.0735,29.4078 91.9075,29.4778 91.7145,29.4778 L89.7205,29.4778 C89.5275,29.4778 89.3615,29.4078 89.2215,29.2678 C89.0815,29.1278 89.0115,28.9618 89.0115,28.7688 L89.0115,27.9018 C88.6435,28.4098 88.1145,28.8438 87.4235,29.2018 C86.7315,29.5608 85.8525,29.7398 84.7855,29.7398 C84.0325,29.7398 83.3585,29.6388 82.7635,29.4388 C82.1685,29.2368 81.6695,28.9518 81.2675,28.5848 C80.8655,28.2178 80.5545,27.7838 80.3355,27.2858 C80.1175,26.7868 80.0075,26.2398 80.0075,25.6458 C80.0075,24.4378 80.4365,23.4918 81.2935,22.8098 C82.1515,22.1278 83.2975,21.6638 84.7325,21.4188 L89.0115,20.6838 C89.0115,19.9668 88.7755,19.4588 88.3025,19.1608 C87.8305,18.8638 87.2445,18.7148 86.5435,18.7148 C86.1065,18.7148 85.7645,18.7768 85.5205,18.8988 C85.2755,19.0218 85.0395,19.1878 84.8115,19.3978 C84.6545,19.5378 84.5095,19.6338 84.3775,19.6868 C84.2475,19.7388 84.1025,19.7648 83.9455,19.7648 L81.5035,19.7648 C81.3295,19.7648 81.1795,19.7128 81.0575,19.6078 C80.9355,19.5028 80.8915,19.3618 80.9265,19.1878 Z M99.3281,24.2539 L99.3281,28.7689 C99.3281,28.9619 99.2581,29.1279 99.1181,29.2679 C98.9771,29.4079 98.8111,29.4779 98.6191,29.4779 L96.6241,29.4779 C96.4321,29.4779 96.2651,29.4079 96.1261,29.2679 C95.9851,29.1279 95.9161,28.9619 95.9161,28.7689 L95.9161,11.5489 C95.9161,11.3569 95.9851,11.1909 96.1261,11.0499 C96.2651,10.9099 96.4321,10.8399 96.6241,10.8399 L98.6191,10.8399 C98.8111,10.8399 98.9771,10.9099 99.1181,11.0499 C99.2581,11.1909 99.3281,11.3569 99.3281,11.5489 L99.3281,19.8169 L103.7121,16.2739 C103.8171,16.1869 103.9521,16.0899 104.1191,15.9849 C104.2851,15.8799 104.4901,15.8269 104.7351,15.8269 L107.4131,15.8269 C107.5881,15.8269 107.7371,15.8889 107.8591,16.0119 C107.9811,16.1339 108.0431,16.2829 108.0431,16.4579 C108.0431,16.5449 108.0301,16.6279 108.0041,16.7069 C107.9771,16.7859 107.8941,16.8779 107.7551,16.9829 L101.6391,21.9179 L108.3321,28.3489 C108.4361,28.4539 108.5071,28.5419 108.5421,28.6109 C108.5771,28.6819 108.5951,28.7599 108.5951,28.8479 C108.5951,29.0229 108.5331,29.1719 108.4111,29.2939 C108.2881,29.4159 108.1401,29.4779 107.9651,29.4779 L105.4181,29.4779 C105.1551,29.4779 104.9321,29.4249 104.7491,29.3199 C104.5651,29.2149 104.4301,29.1189 104.3421,29.0309 L99.3281,24.2539 Z M116.416,18.7148 C115.908,18.7148 115.476,18.7898 115.117,18.9388 C114.758,19.0868 114.456,19.2788 114.212,19.5158 C113.966,19.7518 113.778,20.0148 113.647,20.3028 C113.516,20.5918 113.433,20.8668 113.397,21.1298 L119.33,21.1298 C119.295,20.8668 119.229,20.5918 119.134,20.3028 C119.037,20.0148 118.88,19.7518 118.661,19.5158 C118.441,19.2788 118.153,19.0868 117.795,18.9388 C117.436,18.7898 116.977,18.7148 116.416,18.7148 M109.985,22.6528 C109.985,21.6728 110.134,20.7488 110.432,19.8828 C110.729,19.0168 111.157,18.2648 111.718,17.6258 C112.277,16.9868 112.955,16.4838 113.752,16.1158 C114.548,15.7488 115.437,15.5658 116.416,15.5658 C117.396,15.5658 118.284,15.7448 119.081,16.1038 C119.877,16.4618 120.555,16.9438 121.115,17.5468 C121.675,18.1508 122.108,18.8598 122.415,19.6728 C122.721,20.4868 122.874,21.3398 122.874,22.2328 L122.874,23.4138 C122.874,23.6068 122.804,23.7728 122.664,23.9118 C122.523,24.0528 122.357,24.1218 122.165,24.1218 L113.397,24.1218 C113.397,24.5258 113.48,24.8798 113.647,25.1858 C113.813,25.4918 114.036,25.7498 114.316,25.9598 C114.596,26.1698 114.92,26.3268 115.288,26.4328 C115.655,26.5368 116.031,26.5898 116.416,26.5898 C116.977,26.5898 117.432,26.5328 117.781,26.4188 C118.131,26.3058 118.42,26.1608 118.647,25.9858 C118.84,25.8468 118.998,25.7498 119.12,25.6968 C119.242,25.6458 119.409,25.6188 119.619,25.6188 L121.719,25.6188 C121.911,25.6188 122.082,25.6888 122.23,25.8288 C122.379,25.9688 122.445,26.1348 122.428,26.3268 C122.41,26.5728 122.274,26.8878 122.02,27.2728 C121.767,27.6568 121.387,28.0338 120.879,28.4018 C120.371,28.7688 119.746,29.0838 119.002,29.3468 C118.258,29.6088 117.396,29.7398 116.416,29.7398 C115.437,29.7398 114.548,29.5688 113.752,29.2288 C112.955,28.8868 112.277,28.4018 111.718,27.7718 C111.157,27.1418 110.729,26.3938 110.432,25.5268 C110.134,24.6608 109.985,23.7018 109.985,22.6528 Z M138.5449,28.7686 C138.5449,28.9616 138.4749,29.1276 138.3349,29.2676 C138.1939,29.4086 138.0279,29.4776 137.8359,29.4776 L135.8419,29.4776 C135.6489,29.4776 135.4819,29.4086 135.3429,29.2676 C135.2019,29.1276 135.1329,28.9616 135.1329,28.7686 L135.1329,22.1016 C135.1329,21.0516 134.8879,20.2106 134.3979,19.5806 C133.9069,18.9516 133.1549,18.6366 132.1399,18.6366 C131.2119,18.6366 130.4819,18.9516 129.9479,19.5806 C129.4139,20.2106 129.1479,21.0516 129.1479,22.1016 L129.1479,28.7686 C129.1479,28.9616 129.0769,29.1276 128.9379,29.2676 C128.7969,29.4086 128.6309,29.4776 128.4389,29.4776 L126.4429,29.4776 C126.2509,29.4776 126.0849,29.4086 125.9449,29.2676 C125.8049,29.1276 125.7349,28.9616 125.7349,28.7686 L125.7349,16.5366 C125.7349,16.3436 125.8049,16.1776 125.9449,16.0376 C126.0849,15.8976 126.2509,15.8276 126.4429,15.8276 L128.4389,15.8276 C128.6309,15.8276 128.7969,15.8976 128.9379,16.0376 C129.0769,16.1776 129.1479,16.3436 129.1479,16.5366 L129.1479,17.1396 C129.6029,16.6856 130.1359,16.3086 130.7489,16.0116 C131.3609,15.7136 132.0879,15.5656 132.9279,15.5656 C133.9949,15.5656 134.8879,15.7316 135.6059,16.0636 C136.3219,16.3966 136.8999,16.8426 137.3379,17.4026 C137.7739,17.9626 138.0859,18.6146 138.2699,19.3586 C138.4529,20.1026 138.5449,20.8846 138.5449,21.7076 L138.5449,28.7686 Z M147.7842,18.7148 C147.2762,18.7148 146.8442,18.7898 146.4852,18.9388 C146.1262,19.0868 145.8242,19.2788 145.5802,19.5158 C145.3342,19.7518 145.1462,20.0148 145.0152,20.3028 C144.8842,20.5918 144.8012,20.8668 144.7652,21.1298 L150.6982,21.1298 C150.6632,20.8668 150.5972,20.5918 150.5022,20.3028 C150.4052,20.0148 150.2482,19.7518 150.0292,19.5158 C149.8092,19.2788 149.5212,19.0868 149.1632,18.9388 C148.8042,18.7898 148.3452,18.7148 147.7842,18.7148 M141.3532,22.6528 C141.3532,21.6728 141.5022,20.7488 141.8002,19.8828 C142.0972,19.0168 142.5252,18.2648 143.0862,17.6258 C143.6452,16.9868 144.3232,16.4838 145.1202,16.1158 C145.9162,15.7488 146.8052,15.5658 147.7842,15.5658 C148.7642,15.5658 149.6522,15.7448 150.4492,16.1038 C151.2452,16.4618 151.9232,16.9438 152.4832,17.5468 C153.0432,18.1508 153.4762,18.8598 153.7832,19.6728 C154.0892,20.4868 154.2422,21.3398 154.2422,22.2328 L154.2422,23.4138 C154.2422,23.6068 154.1722,23.7728 154.0322,23.9118 C153.8912,24.0528 153.7252,24.1218 153.5332,24.1218 L144.7652,24.1218 C144.7652,24.5258 144.8482,24.8798 145.0152,25.1858 C145.1812,25.4918 145.4042,25.7498 145.6842,25.9598 C145.9642,26.1698 146.2882,26.3268 146.6562,26.4328 C147.0232,26.5368 147.3992,26.5898 147.7842,26.5898 C148.3452,26.5898 148.8002,26.5328 149.1492,26.4188 C149.4992,26.3058 149.7882,26.1608 150.0152,25.9858 C150.2082,25.8468 150.3662,25.7498 150.4882,25.6968 C150.6102,25.6458 150.7772,25.6188 150.9872,25.6188 L153.0872,25.6188 C153.2792,25.6188 153.4502,25.6888 153.5982,25.8288 C153.7472,25.9688 153.8132,26.1348 153.7962,26.3268 C153.7782,26.5728 153.6422,26.8878 153.3882,27.2728 C153.1352,27.6568 152.7552,28.0338 152.2472,28.4018 C151.7392,28.7688 151.1142,29.0838 150.3702,29.3468 C149.6262,29.6088 148.7642,29.7398 147.7842,29.7398 C146.8052,29.7398 145.9162,29.5688 145.1202,29.2288 C144.3232,28.8868 143.6452,28.4018 143.0862,27.7718 C142.5252,27.1418 142.0972,26.3938 141.8002,25.5268 C141.5022,24.6608 141.3532,23.7018 141.3532,22.6528 Z M161.6973,24.543 C161.6973,25.085 161.8423,25.519 162.1303,25.842 C162.4193,26.166 162.9573,26.327 163.7443,26.327 L165.3453,26.327 C165.5383,26.327 165.7043,26.397 165.8443,26.537 C165.9843,26.678 166.0543,26.844 166.0543,27.036 L166.0543,28.769 C166.0543,28.962 165.9843,29.128 165.8443,29.268 C165.7043,29.408 165.5383,29.478 165.3453,29.478 L163.4033,29.478 C161.7583,29.478 160.4933,29.08 159.6103,28.283 C158.7263,27.487 158.2843,26.267 158.2843,24.621 L158.2843,18.978 L156.5513,18.978 C156.3593,18.978 156.1933,18.908 156.0533,18.768 C155.9133,18.628 155.8433,18.462 155.8433,18.269 L155.8433,16.536 C155.8433,16.344 155.9133,16.178 156.0533,16.037 C156.1933,15.897 156.3593,15.827 156.5513,15.827 L158.2843,15.827 L158.2843,11.549 C158.2843,11.356 158.3543,11.19 158.4943,11.05 C158.6343,10.91 158.8013,10.84 158.9933,10.84 L160.9883,10.84 C161.1803,10.84 161.3463,10.91 161.4873,11.05 C161.6273,11.19 161.6973,11.356 161.6973,11.549 L161.6973,15.827 L165.0833,15.827 C165.2753,15.827 165.4413,15.897 165.5823,16.037 C165.7213,16.178 165.7923,16.344 165.7923,16.536 L165.7923,18.269 C165.7923,18.462 165.7213,18.628 165.5823,18.768 C165.4413,18.908 165.2753,18.978 165.0833,18.978 L161.6973,18.978 L161.6973,24.543 Z" id="text" fill="#FFFFFF"></path>
                    <path d="M21,0 C9.402,0 0,9.402 0,21 C0,32.598 9.402,42 21,42 C32.598,42 42,32.598 42,21 C42,9.402 32.598,0 21,0" id="round" fill="#FFFFFF"></path>
                    <path d="M21.3506,19.2109 C18.6216,18.6509 16.0516,17.6459 14.4966,16.3069 C13.4936,15.4419 13.6416,13.8469 14.7886,13.1849 L20.0396,10.1519 C20.6346,9.8099 21.3676,9.8099 21.9616,10.1519 L29.9146,14.7439 C30.5086,15.0879 30.8746,15.7219 30.8746,16.4079 L30.8746,22.7929 C30.8746,23.1929 30.4006,23.3979 30.1066,23.1269 C28.8356,21.9559 26.3366,20.2329 21.3506,19.2109 Z M20.6494,22.7891 C23.3784,23.3491 25.9484,24.3541 27.5034,25.6931 C28.5064,26.5581 28.3584,28.1531 27.2114,28.8151 L21.9604,31.8481 C21.3654,32.1901 20.6324,32.1901 20.0384,31.8481 L12.0854,27.2561 C11.4914,26.9121 11.1254,26.2781 11.1254,25.5921 L11.1254,19.2071 C11.1254,18.8071 11.5994,18.6021 11.8934,18.8731 C13.1644,20.0441 15.6634,21.7671 20.6494,22.7891 Z" id="sign" fill="#090D1C"></path>
                </g>
            </g>
        </g>
    </g>
</svg>