<svg width="44" height="44" xmlns="http://www.w3.org/2000/svg" xmlns:xlink="http://www.w3.org/1999/xlink"><defs><path d="M1086.646 5636.854a.5.5 0 1 1 .708-.708l3 3a.5.5 0 0 1 0 .708l-3 3a.5.5 0 1 1-.708-.708l2.647-2.646-2.647-2.646zm4.561-5.854l2.147 2.146a.5.5 0 1 1-.708.708l-3-3a.5.5 0 0 1 0-.708l3-3a.5.5 0 1 1 .708.708l-2.147 2.146h5.293a.5.5 0 0 1 .5.5v4a.5.5 0 0 1-1 0v-3.5h-4.793zm-6.207 2a3 3 0 1 1 0-6 3 3 0 0 1 0 6zm0-1a2 2 0 1 0 0-4 2 2 0 0 0 0 4zm10 11a3 3 0 1 1 0-6 3 3 0 0 1 0 6zm0-1a2 2 0 1 0 0-4 2 2 0 0 0 0 4zm-11-3h6a.5.5 0 0 1 0 1h-6.5a.5.5 0 0 1-.5-.5v-4a.5.5 0 0 1 1 0v3.5z" id="b"/><filter x="-190.6%" y="-190.6%" width="481.2%" height="481.2%" filterUnits="objectBoundingBox" id="a"><feOffset in="SourceAlpha" result="shadowOffsetOuter1"/><feGaussianBlur stdDeviation="7.5" in="shadowOffsetOuter1" result="shadowBlurOuter1"/><feColorMatrix values="0 0 0 0 0.1 0 0 0 0 0.411764706 0 0 0 0 1 0 0 0 1 0" in="shadowBlurOuter1" result="shadowMatrixOuter1"/><feOffset in="SourceAlpha" result="shadowOffsetOuter2"/><feGaussianBlur stdDeviation="4" in="shadowOffsetOuter2" result="shadowBlurOuter2"/><feColorMatrix values="0 0 0 0 0.1 0 0 0 0 0.411764706 0 0 0 0 1 0 0 0 1 0" in="shadowBlurOuter2" result="shadowMatrixOuter2"/><feMerge><feMergeNode in="shadowMatrixOuter1"/><feMergeNode in="shadowMatrixOuter2"/></feMerge></filter></defs><g transform="translate(-1068 -5613)" fill-rule="nonzero" fill="none"><use fill="#000" filter="url(#a)" xlink:href="#b"/><use fill="#4169FF" fill-rule="evenodd" xlink:href="#b"/></g></svg>