<svg width="23" height="23" xmlns="http://www.w3.org/2000/svg"><path d="M10 11.5h1v4c0 1.287 2.427 2.5 5.5 2.5s5.5-1.213 5.5-2.5v-4h1v4c0 2.027-2.945 3.5-6.5 3.5S10 17.527 10 15.5v-4zm0 4h1v4c0 1.287 2.427 2.5 5.5 2.5s5.5-1.213 5.5-2.5v-4h1v4c0 2.027-2.945 3.5-6.5 3.5S10 21.527 10 19.5v-4zm6.5-.5c-3.554 0-6.5-1.473-6.5-3.5S12.946 8 16.5 8 23 9.473 23 11.5 20.054 15 16.5 15zm0-1c3.073 0 5.5-1.214 5.5-2.5S19.573 9 16.5 9 11 10.214 11 11.5s2.427 2.5 5.5 2.5zM7 7V4.5a.5.5 0 0 1 1 0V8H4.5a.5.5 0 0 1 0-1H7zm.5 7a.5.5 0 0 1 0 1 7.5 7.5 0 1 1 7.19-9.642.5.5 0 1 1-.96.286A6.5 6.5 0 1 0 7.5 14z" fill="#2C80FF" fill-rule="nonzero"/></svg>