<svg width="44" height="44" xmlns="http://www.w3.org/2000/svg" xmlns:xlink="http://www.w3.org/1999/xlink"><defs><path d="M366.3 1609.745a.5.5 0 0 1 .26.965 5.499 5.499 0 0 0-3.031 2.103.5.5 0 0 1-.812-.583 6.499 6.499 0 0 1 3.583-2.485zm7.946 4.521a.5.5 0 0 1-.964.267 5.499 5.499 0 0 0-2.095-3.004.5.5 0 1 1 .583-.812 6.499 6.499 0 0 1 2.476 3.55zm-4.48 7.97a.5.5 0 0 1-.271-.962 5.499 5.499 0 0 0 2.976-2.087.5.5 0 0 1 .812.583 6.499 6.499 0 0 1-3.517 2.467zm-8.024-4.546a.5.5 0 0 1 .966-.26 5.499 5.499 0 0 0 2.105 3.041.5.5 0 0 1-.583.812 6.499 6.499 0 0 1-2.488-3.593zM367 1609v2h2v-2h-2zm-.5-1h3a.5.5 0 0 1 .5.5v3a.5.5 0 0 1-.5.5h-3a.5.5 0 0 1-.5-.5v-3a.5.5 0 0 1 .5-.5zm6.5 7v2h2v-2h-2zm-.5-1h3a.5.5 0 0 1 .5.5v3a.5.5 0 0 1-.5.5h-3a.5.5 0 0 1-.5-.5v-3a.5.5 0 0 1 .5-.5zm-11.5 1v2h2v-2h-2zm-.5-1h3a.5.5 0 0 1 .5.5v3a.5.5 0 0 1-.5.5h-3a.5.5 0 0 1-.5-.5v-3a.5.5 0 0 1 .5-.5zm6.5 7v2h2v-2h-2zm-.5-1h3a.5.5 0 0 1 .5.5v3a.5.5 0 0 1-.5.5h-3a.5.5 0 0 1-.5-.5v-3a.5.5 0 0 1 .5-.5z" id="b"/><filter x="-190.6%" y="-190.6%" width="481.2%" height="481.2%" filterUnits="objectBoundingBox" id="a"><feOffset in="SourceAlpha" result="shadowOffsetOuter1"/><feGaussianBlur stdDeviation="7.5" in="shadowOffsetOuter1" result="shadowBlurOuter1"/><feColorMatrix values="0 0 0 0 0.1 0 0 0 0 0.411764706 0 0 0 0 1 0 0 0 1 0" in="shadowBlurOuter1" result="shadowMatrixOuter1"/><feOffset in="SourceAlpha" result="shadowOffsetOuter2"/><feGaussianBlur stdDeviation="4" in="shadowOffsetOuter2" result="shadowBlurOuter2"/><feColorMatrix values="0 0 0 0 0.1 0 0 0 0 0.411764706 0 0 0 0 1 0 0 0 1 0" in="shadowBlurOuter2" result="shadowMatrixOuter2"/><feMerge><feMergeNode in="shadowMatrixOuter1"/><feMergeNode in="shadowMatrixOuter2"/></feMerge></filter></defs><g transform="translate(-346 -1594)" fill-rule="nonzero" fill="none"><use fill="#000" filter="url(#a)" xlink:href="#b"/><use fill="#4169FF" fill-rule="evenodd" xlink:href="#b"/></g></svg>