<?xml version="1.0" encoding="UTF-8"?>
<svg width="23px" height="23px" viewBox="0 0 23 23" version="1.1" xmlns="http://www.w3.org/2000/svg" xmlns:xlink="http://www.w3.org/1999/xlink">
    <!-- Generator: sketchtool 53.2 (72643) - https://sketchapp.com -->
    <title>0BE2A25E-984E-4533-817D-E90C02A0D259</title>
    <desc>Created with sketchtool.</desc>
    <g id="Website_desktop_1240" stroke="none" stroke-width="1" fill="none" fill-rule="evenodd">
        <g id="XSN_desktop_1240-@2x" transform="translate(-821.000000, -6526.000000)" fill="#2C80FF" fill-rule="nonzero">
            <g id="Group-6" transform="translate(360.000000, 6109.000000)">
                <path d="M480.434475,435.819626 C480.145813,435.935966 479.830412,436 479.5,436 C479.169588,436 478.854187,435.935966 478.565525,435.819626 L476.6,437.3 C476.221903,437.583573 476,438.027379 476,438.5 L476,439 L483,439 L483,438.5 C483,438.027379 482.778097,437.583573 482.39919,437.299391 L480.434475,435.819626 Z M481.308721,435.226178 L483,436.5 C483.629903,436.972427 484,437.712621 484,438.5 L484,440 L475,440 L475,438.5 C475,437.712621 475.370097,436.972427 475.99919,436.500609 L477.691279,435.226178 C477.262958,434.777492 477,434.169568 477,433.5 L477,432.5 C477,431.118858 478.118858,430 479.5,430 C480.881142,430 482,431.118858 482,432.5 L482,433.5 C482,434.169568 481.737042,434.777493 481.308721,435.226178 Z M473.434475,422.819626 C473.145813,422.935966 472.830412,423 472.5,423 C472.169588,423 471.854187,422.935966 471.565525,422.819626 L469.6,424.3 C469.221903,424.583573 469,425.027379 469,425.5 L469,426 L476,426 L476,425.5 C476,425.027379 475.778097,424.583573 475.39919,424.299391 L473.434475,422.819626 Z M474.308721,422.226178 L476,423.5 C476.629903,423.972427 477,424.712621 477,425.5 L477,427 L468,427 L468,425.5 C468,424.712621 468.370097,423.972427 468.99919,423.500609 L470.691279,422.226178 C470.262958,421.777492 470,421.169568 470,420.5 L470,419.5 C470,418.118858 471.118858,417 472.5,417 C473.881142,417 475,418.118858 475,419.5 L475,420.5 C475,421.169568 474.737042,421.777493 474.308721,422.226178 Z M466.434475,435.819626 C466.145813,435.935966 465.830412,436 465.5,436 C465.169588,436 464.854187,435.935966 464.565525,435.819626 L462.6,437.3 C462.221903,437.583573 462,438.027379 462,438.5 L462,439 L469,439 L469,438.5 C469,438.027379 468.778097,437.583573 468.39919,437.299391 L466.434475,435.819626 Z M467.308721,435.226178 L469,436.5 C469.629903,436.972427 470,437.712621 470,438.5 L470,440 L461,440 L461,438.5 C461,437.712621 461.370097,436.972427 461.99919,436.500609 L463.691279,435.226178 C463.262958,434.777492 463,434.169568 463,433.5 L463,432.5 C463,431.118858 464.118858,430 465.5,430 C466.881142,430 468,431.118858 468,432.5 L468,433.5 C468,434.169568 467.737042,434.777493 467.308721,435.226178 Z M465.5,435 C466.328858,435 467,434.328858 467,433.5 L467,432.5 C467,431.671142 466.328858,431 465.5,431 C464.671142,431 464,431.671142 464,432.5 L464,433.5 C464,434.328858 464.671142,435 465.5,435 Z M472.5,422 C473.328858,422 474,421.328858 474,420.5 L474,419.5 C474,418.671142 473.328858,418 472.5,418 C471.671142,418 471,418.671142 471,419.5 L471,420.5 C471,421.328858 471.671142,422 472.5,422 Z M479.5,435 C480.328858,435 481,434.328858 481,433.5 L481,432.5 C481,431.671142 480.328858,431 479.5,431 C478.671142,431 478,431.671142 478,432.5 L478,433.5 C478,434.328858 478.671142,435 479.5,435 Z" id="icons/participants"></path>
            </g>
        </g>
    </g>
</svg>