<svg width="23" height="23" xmlns="http://www.w3.org/2000/svg"><path d="M12.389 21.744l.264-2.684a.5.5 0 0 1 .605-.44l2.633.58a.5.5 0 0 1 .187.893l-2.898 2.104a.5.5 0 0 1-.791-.453zm8.5-2.369a.5.5 0 1 1 .97.25 4.502 4.502 0 0 1-8.256 1.127.5.5 0 1 1 .866-.502 3.502 3.502 0 0 0 6.421-.875zm1.722-5.119l-.264 2.684a.5.5 0 0 1-.605.44l-2.633-.58a.5.5 0 0 1-.187-.893l2.898-2.104a.5.5 0 0 1 .791.453zm-8.5 2.369a.5.5 0 1 1-.97-.25 4.502 4.502 0 0 1 8.256-1.127.5.5 0 1 1-.866.502 3.502 3.502 0 0 0-6.421.875zM22 5H1v4h21V5zm0-1V2.5c0-.824-.676-1.5-1.5-1.5h-18C1.676 1 1 1.676 1 2.5V4h21zM1 10v5.5c0 .824.676 1.5 1.5 1.5h6a.5.5 0 0 1 0 1h-6A2.506 2.506 0 0 1 0 15.5v-13C0 1.124 1.124 0 2.5 0h18C21.876 0 23 1.124 23 2.5V10H1z" fill="#2C80FF" fill-rule="nonzero"/></svg>