<?xml version="1.0" encoding="UTF-8"?>
<svg width="23px" height="23px" viewBox="0 0 23 23" version="1.1" xmlns="http://www.w3.org/2000/svg" xmlns:xlink="http://www.w3.org/1999/xlink">
    <!-- Generator: sketchtool 53.2 (72643) - https://sketchapp.com -->
    <title>4B3B181D-4F58-40FB-BA5B-00E89A06D42E</title>
    <desc>Created with sketchtool.</desc>
    <g id="Website_desktop_1240" stroke="none" stroke-width="1" fill="none" fill-rule="evenodd">
        <g id="XSN_desktop_1240-@2x" transform="translate(-454.000000, -6526.000000)" fill="#2C80FF" fill-rule="nonzero">
            <g id="Group-6" transform="translate(360.000000, 6109.000000)">
                <path d="M100.044253,419.526883 C100.550471,419.996045 100.992257,420.557804 101.400303,421.242682 C102.351931,422.836552 102.801381,424.634648 101.895525,425.805876 C101.486351,426.334973 100.913331,426.70808 99.8941111,427.213422 C99.8412028,427.239655 99.3213286,427.493998 99.177459,427.566548 C98.3338148,427.991976 98,428.274717 98,428.5 C98,428.842454 98.2630764,429.233662 99.0910749,430.189973 C99.3013088,430.432786 99.4166495,430.568469 99.5399057,430.720617 C99.6848046,430.899481 99.8073095,431.062053 99.9139954,431.219629 C100.930928,432.721231 100.793413,434.309576 99.9293563,435.756229 C99.7071947,436.1285 99.3981237,436.471447 99.0289471,436.769529 C100.812192,438.166912 103.058807,439 105.5,439 C111.29899,439 116,434.29899 116,428.5 C116,426.202848 115.262323,424.077989 114.010935,422.349389 C112.168181,423.163516 109.432069,423.934225 108.535793,423.998717 C107.778697,424.053054 107.300625,423.749314 106.861434,423.073389 C106.776224,422.942248 106.272598,422.064074 106.082291,421.774808 C105.923886,421.534031 105.819024,421.408265 105.256889,420.76303 C105.049306,420.52476 104.912001,420.362447 104.77941,420.195222 C104.268075,419.550321 104,419.034061 104,418.5 C104,418.359939 104.004776,418.22888 104.014928,418.104209 C102.577175,418.307755 101.233082,418.802515 100.044253,419.526883 Z M98.2569128,436.101848 C98.6034024,435.848563 98.885793,435.553521 99.0707393,435.243611 C99.7536021,434.100324 99.8560184,432.917373 99.0859683,431.780317 C98.9969401,431.648822 98.8910608,431.508313 98.7628821,431.350088 C98.6484982,431.208892 98.5384742,431.079463 98.3350714,430.84454 C97.3075297,429.657764 97,429.200452 97,428.5 C97,427.72793 97.5348217,427.274935 98.7271952,426.673653 C98.8775176,426.597849 99.4018094,426.341344 99.4499014,426.317499 C100.336636,425.877845 100.818224,425.564272 101.104491,425.194104 C101.658595,424.477674 101.292404,423.012668 100.541459,421.754918 C100.133065,421.069458 99.6973423,420.536501 99.1907566,420.106182 C96.6456766,422.022237 95,425.068935 95,428.5 C95,431.490744 96.2503883,434.189444 98.2569128,436.101848 Z M105.031684,418.010257 C105.010016,418.154145 105,418.313133 105,418.5 C105,418.742606 105.182482,419.094031 105.56299,419.573931 C105.683732,419.726213 105.812662,419.878625 106.01088,420.106145 C106.613592,420.797956 106.722813,420.92895 106.917709,421.225192 C107.129951,421.5478 107.635469,422.429274 107.699968,422.52854 C107.957882,422.925475 108.11648,423.026239 108.464115,423.001289 C109.202241,422.948177 111.629355,422.270299 113.362181,421.540214 C111.438529,419.368763 108.62911,418 105.5,418 C105.343067,418 105.186937,418.003443 105.031684,418.010257 Z M105.5,440 C99.1487254,440 94,434.851275 94,428.5 C94,422.148725 99.1487254,417 105.5,417 C111.851275,417 117,422.148725 117,428.5 C117,434.851275 111.851275,440 105.5,440 Z M112.014046,429.409809 C111.995802,428.036471 110.67942,426.903 109.014,426.903 C107.289213,426.903 105.864186,428.083024 106.010673,429.345417 C106.152835,430.5716 106.150789,431.510909 106.061512,432.812937 C105.940636,434.575816 105.982276,434.74888 106.688857,435.037039 C108.395946,435.733418 112.050813,432.10953 112.014046,429.409809 Z M106.311187,435.962979 C105.042083,435.445412 104.914905,434.916836 105.063855,432.74453 C105.149297,431.49843 105.15122,430.615445 105.017333,429.460633 C104.792585,427.523806 106.749911,425.903 109.014,425.903 C111.198665,425.903 112.987964,427.44365 113.013955,429.396275 C113.059315,432.732349 108.783768,436.971627 106.311187,435.962979 Z" id="icons/planet"></path>
            </g>
        </g>
    </g>
</svg>