<svg width="18" height="25" xmlns="http://www.w3.org/2000/svg"><defs><linearGradient x1="14.798%" y1="0%" x2="86.605%" y2="97.594%" id="a"><stop stop-color="#6CA6F9" offset="0%"/><stop stop-color="#4169FF" offset="30.871%"/><stop stop-color="#4169FF" offset="100%"/></linearGradient></defs><path d="M35.704 19.5c.1.3.1.6 0 .9l-2 4c-.2.4-.5.6-.9.6h-2v-2h-2v2h-2c-.4 0-.7-.2-.9-.6l-2-4c-.1-.3-.1-.6 0-.9.2-.3.6-.5.9-.5h10c.3 0 .7.2.9.5zm2.5 16.2c.8 2 .4 4.2-1.1 5.8-1 1.1-2.4 1.6-3.9 1.6h-6.8c-1.4 0-2.9-.6-3.9-1.6-1.5-1.6-1.9-3.8-1.1-5.7l4-8.2c.2-.4.5-.6.9-.6h7c.4 0 .7.2.9.5l4 8.2z" transform="translate(-21 -19)" fill="url(#a)" fill-rule="nonzero"/></svg>