<svg width="15" height="15" xmlns="http://www.w3.org/2000/svg" xmlns:xlink="http://www.w3.org/1999/xlink"><defs><path d="M14.697 19.5H20v-5.884c-1.556 1.242-3.598 2.164-5.98 2.575l.003.04a13.83 13.83 0 0 0 .674 3.269zm.385 1c.13.297.27.591.425.88 1.013 1.89 2.483 3.384 4.493 4.354V20.5h-4.918zm11.221-1a13.83 13.83 0 0 0 .677-3.309c-2.382-.41-4.424-1.333-5.98-2.575V19.5h5.303zm-.385 1H21v5.234c2.01-.97 3.48-2.464 4.493-4.354.154-.289.296-.583.425-.88zm-5.222 6.46a.498.498 0 0 1-.392 0c-2.59-1.039-4.449-2.814-5.678-5.108a14.047 14.047 0 0 1-1.422-4.17 13.887 13.887 0 0 1-.178-1.374 7.671 7.671 0 0 1-.026-.541.5.5 0 0 1 .43-.495c2.832-.405 5.16-1.569 6.716-3.126a.5.5 0 0 1 .708 0c1.556 1.557 3.884 2.721 6.717 3.126a.5.5 0 0 1 .429.495c0 .104-.007.288-.026.54-.032.417-.089.879-.178 1.376-.253 1.419-.71 2.84-1.422 4.169-1.23 2.294-3.088 4.07-5.678 5.108z" id="a"/></defs><g transform="translate(-13 -12)" fill="none" fill-rule="evenodd"><mask id="b" fill="#fff"><use xlink:href="#a"/></mask><use fill="#8192DB" fill-rule="nonzero" xlink:href="#a"/><g mask="url(#b)" fill="#6672A6"><path d="M0 0h40v40H0z"/></g></g></svg>