<svg width="19" height="22" xmlns="http://www.w3.org/2000/svg"><path d="M9.5 11a3.5 3.5 0 1 1 0-7 3.5 3.5 0 0 1 0 7zm0-1a2.5 2.5 0 1 0 0-5 2.5 2.5 0 0 0 0 5zm4 5a.5.5 0 0 1 0-1h1a.5.5 0 0 1 0 1h-1zm-9 0a.5.5 0 0 1 0-1h5a.5.5 0 0 1 0 1h-5zM1 1v19.566l2.223-1.482a.5.5 0 0 1 .554 0L6.5 20.899l2.723-1.815a.5.5 0 0 1 .554 0l2.723 1.815 2.723-1.815a.5.5 0 0 1 .554 0L18 20.566V1H1zM.777 21.916A.5.5 0 0 1 0 21.5V.5A.5.5 0 0 1 .5 0h18a.5.5 0 0 1 .5.5v21a.5.5 0 0 1-.777.416L15.5 20.101l-2.723 1.815a.5.5 0 0 1-.554 0L9.5 20.101l-2.723 1.815a.5.5 0 0 1-.554 0L3.5 20.101.777 21.916z" fill="#2C80FF" fill-rule="nonzero"/></svg>