<svg width="44" height="43" xmlns="http://www.w3.org/2000/svg" xmlns:xlink="http://www.w3.org/1999/xlink"><defs><path d="M365.5 5265a3.5 3.5 0 1 1 0-7 3.5 3.5 0 0 1 0 7zm0-1a2.5 2.5 0 1 0 0-5 2.5 2.5 0 0 0 0 5zm7 0a2.5 2.5 0 1 1 0-5 2.5 2.5 0 0 1 0 5zm0-1a1.5 1.5 0 1 0 0-3 1.5 1.5 0 0 0 0 3zm-7 3a5.5 5.5 0 0 1 5.5 5.5.5.5 0 0 1-.5.5h-10a.5.5 0 0 1-.5-.5 5.5 5.5 0 0 1 5.5-5.5zm0 1a4.5 4.5 0 0 0-4.473 4h8.946a4.5 4.5 0 0 0-4.473-4zm9.5 1.5a2.5 2.5 0 0 0-3.882-2.084.5.5 0 0 1-.554-.832A3.5 3.5 0 0 1 376 5268.5v1a.5.5 0 0 1-.5.5h-3a.5.5 0 0 1 0-1h2.5v-.5z" id="b"/><filter x="-190.6%" y="-217.9%" width="481.2%" height="535.7%" filterUnits="objectBoundingBox" id="a"><feOffset in="SourceAlpha" result="shadowOffsetOuter1"/><feGaussianBlur stdDeviation="7.5" in="shadowOffsetOuter1" result="shadowBlurOuter1"/><feColorMatrix values="0 0 0 0 0.1 0 0 0 0 0.411764706 0 0 0 0 1 0 0 0 1 0" in="shadowBlurOuter1" result="shadowMatrixOuter1"/><feOffset in="SourceAlpha" result="shadowOffsetOuter2"/><feGaussianBlur stdDeviation="4" in="shadowOffsetOuter2" result="shadowBlurOuter2"/><feColorMatrix values="0 0 0 0 0.1 0 0 0 0 0.411764706 0 0 0 0 1 0 0 0 1 0" in="shadowBlurOuter2" result="shadowMatrixOuter2"/><feMerge><feMergeNode in="shadowMatrixOuter1"/><feMergeNode in="shadowMatrixOuter2"/></feMerge></filter></defs><g transform="translate(-346 -5244)" fill-rule="nonzero" fill="none"><use fill="#000" filter="url(#a)" xlink:href="#b"/><use fill="#4169FF" fill-rule="evenodd" xlink:href="#b"/></g></svg>