<svg width="45" height="46" xmlns="http://www.w3.org/2000/svg" xmlns:xlink="http://www.w3.org/1999/xlink"><defs><path d="M1089.5 5802a.5.5 0 0 1 0 1h-4a1.5 1.5 0 0 1-1.5-1.5v-13a1.5 1.5 0 0 1 1.5-1.5h9a1.5 1.5 0 0 1 1.5 1.5v3a.5.5 0 0 1-1 0v-3a.5.5 0 0 0-.5-.5h-9a.5.5 0 0 0-.5.5v13a.5.5 0 0 0 .5.5h4zm3.5-3v3h5v-3h-5zm0-1v-1.5a2.5 2.5 0 0 1 5 0v1.5h.5a.5.5 0 0 1 .5.5v4a.5.5 0 0 1-.5.5h-6a.5.5 0 0 1-.5-.5v-4a.5.5 0 0 1 .5-.5h.5zm1 0h3v-1.5a1.5 1.5 0 1 0-3 0v1.5z" id="b"/><filter x="-203.3%" y="-190.6%" width="506.7%" height="481.2%" filterUnits="objectBoundingBox" id="a"><feOffset in="SourceAlpha" result="shadowOffsetOuter1"/><feGaussianBlur stdDeviation="7.5" in="shadowOffsetOuter1" result="shadowBlurOuter1"/><feColorMatrix values="0 0 0 0 0.1 0 0 0 0 0.411764706 0 0 0 0 1 0 0 0 1 0" in="shadowBlurOuter1" result="shadowMatrixOuter1"/><feOffset in="SourceAlpha" result="shadowOffsetOuter2"/><feGaussianBlur stdDeviation="4" in="shadowOffsetOuter2" result="shadowBlurOuter2"/><feColorMatrix values="0 0 0 0 0.1 0 0 0 0 0.411764706 0 0 0 0 1 0 0 0 1 0" in="shadowBlurOuter2" result="shadowMatrixOuter2"/><feMerge><feMergeNode in="shadowMatrixOuter1"/><feMergeNode in="shadowMatrixOuter2"/></feMerge></filter></defs><g transform="translate(-1069 -5772)" fill-rule="nonzero" fill="none"><use fill="#000" filter="url(#a)" xlink:href="#b"/><use fill="#4169FF" fill-rule="evenodd" xlink:href="#b"/></g></svg>