<svg width="16" height="16" xmlns="http://www.w3.org/2000/svg" xmlns:xlink="http://www.w3.org/1999/xlink"><defs><path d="M18.5 26a.5.5 0 1 1 0 1h-4a1.5 1.5 0 0 1-1.5-1.5v-12a1.5 1.5 0 0 1 1.5-1.5h12a1.5 1.5 0 0 1 1.5 1.5v4a.5.5 0 1 1-1 0v-4a.5.5 0 0 0-.5-.5h-12a.5.5 0 0 0-.5.5v12a.5.5 0 0 0 .5.5h4zm3.929.757a.5.5 0 0 1-.918-.152l-1.5-7a.5.5 0 0 1 .594-.594l7 1.5a.5.5 0 0 1 .152.918l-1.95 1.17 3.047 3.047a.5.5 0 0 1 0 .708l-1.5 1.5a.5.5 0 0 1-.708 0L23.6 24.806l-1.17 1.951zm-.206-1.601l.848-1.413a.5.5 0 0 1 .783-.097L27 26.793l.793-.793-3.147-3.146a.5.5 0 0 1 .097-.783l1.413-.848-5.005-1.072 1.072 5.005z" id="a"/></defs><g transform="translate(-13 -12)" fill="none" fill-rule="evenodd"><mask id="b" fill="#fff"><use xlink:href="#a"/></mask><use fill="#8192DB" fill-rule="nonzero" xlink:href="#a"/><g mask="url(#b)" fill="#6672A6"><path d="M0 0h40v40H0z"/></g></g></svg>