<svg width="24" height="24" xmlns="http://www.w3.org/2000/svg"><defs><linearGradient x1="0%" y1="0%" y2="88.782%" id="a"><stop stop-color="#6CA6F9" offset="0%"/><stop stop-color="#4169FF" offset="26.665%"/><stop stop-color="#4169FF" offset="100%"/></linearGradient></defs><path d="M1035.7 4103.715c.187.391.3.824.3 1.285 0 .462-.113.894-.301 1.285l1.468 1.468a4.969 4.969 0 0 0 0-5.505l-1.467 1.467zm8.3-9.715h-22a1 1 0 0 0-1 1v20a1 1 0 0 0 1 1h3v1a1 1 0 0 0 2 0v-1h12v1a1 1 0 0 0 2 0v-1h3a1 1 0 0 0 1-1v-20a1 1 0 0 0-1-1zm-11 18c-3.86 0-7-3.14-7-7s3.14-7 7-7 7 3.14 7 7-3.14 7-7 7zm-1.285-9.699A2.95 2.95 0 0 1 1033 4102c.462 0 .895.114 1.286.301l1.468-1.468a4.97 4.97 0 0 0-5.507 0l1.468 1.468zm2.57 5.398l1.468 1.468a4.969 4.969 0 0 1-5.506.001l1.468-1.468c.391.187.824.3 1.285.3a2.95 2.95 0 0 0 1.285-.301zm-3.984-1.413l-1.468 1.468a4.97 4.97 0 0 1 0-5.507l1.468 1.468A2.95 2.95 0 0 0 1030 4105c0 .462.114.895.301 1.286z" transform="translate(-1021 -4094)" fill="url(#a)" fill-rule="nonzero"/></svg>