<svg width="16" height="16" xmlns="http://www.w3.org/2000/svg" xmlns:xlink="http://www.w3.org/1999/xlink"><defs><path d="M27 21v-7.5a.5.5 0 0 0-.5-.5h-13a.5.5 0 0 0-.5.5V21h14zm0 1H13v1.5a.5.5 0 0 0 .5.5h13a.5.5 0 0 0 .5-.5V22zm-9 3h-4.5a1.5 1.5 0 0 1-1.5-1.5v-10a1.5 1.5 0 0 1 1.5-1.5h13a1.5 1.5 0 0 1 1.5 1.5v10a1.5 1.5 0 0 1-1.5 1.5H22v2h2.5a.5.5 0 1 1 0 1h-9a.5.5 0 1 1 0-1H18v-2zm1 0v2h2v-2h-2z" id="a"/></defs><g transform="translate(-12 -12)" fill="none" fill-rule="evenodd"><mask id="b" fill="#fff"><use xlink:href="#a"/></mask><use fill="#111" fill-rule="nonzero" xlink:href="#a"/><g mask="url(#b)" fill="#6672A6"><path d="M0 0h40v40H0z"/></g></g></svg>